<?xml version="1.0" encoding="utf-8" standalone="no"?>
<!DOCTYPE svg PUBLIC "-//W3C//DTD SVG 1.1//EN"
  "http://www.w3.org/Graphics/SVG/1.1/DTD/svg11.dtd">
<!-- Created with matplotlib (https://matplotlib.org/) -->
<svg height="345.6pt" version="1.1" viewBox="0 0 460.8 345.6" width="460.8pt" xmlns="http://www.w3.org/2000/svg" xmlns:xlink="http://www.w3.org/1999/xlink">
 <defs>
  <style type="text/css">
*{stroke-linecap:butt;stroke-linejoin:round;}
  </style>
 </defs>
 <g id="figure_1">
  <g id="patch_1">
   <path d="M 0 345.6 
L 460.8 345.6 
L 460.8 0 
L 0 0 
z
" style="fill:#ffffff;"/>
  </g>
  <g id="axes_1">
   <g id="patch_2">
    <path d="M 57.6 307.584 
L 414.72 307.584 
L 414.72 41.472 
L 57.6 41.472 
z
" style="fill:#ffffff;"/>
   </g>
   <g id="matplotlib.axis_1">
    <g id="xtick_1">
     <g id="line2d_1">
      <defs>
       <path d="M 0 0 
L 0 3.5 
" id="m4aa6df2730" style="stroke:#000000;stroke-width:0.8;"/>
      </defs>
      <g>
       <use style="stroke:#000000;stroke-width:0.8;" x="86.926026" xlink:href="#m4aa6df2730" y="307.584"/>
      </g>
     </g>
     <g id="text_1">
      <!-- −1.5 -->
      <defs>
       <path d="M 10.59375 35.5 
L 73.1875 35.5 
L 73.1875 27.203125 
L 10.59375 27.203125 
z
" id="DejaVuSans-8722"/>
       <path d="M 12.40625 8.296875 
L 28.515625 8.296875 
L 28.515625 63.921875 
L 10.984375 60.40625 
L 10.984375 69.390625 
L 28.421875 72.90625 
L 38.28125 72.90625 
L 38.28125 8.296875 
L 54.390625 8.296875 
L 54.390625 0 
L 12.40625 0 
z
" id="DejaVuSans-49"/>
       <path d="M 10.6875 12.40625 
L 21 12.40625 
L 21 0 
L 10.6875 0 
z
" id="DejaVuSans-46"/>
       <path d="M 10.796875 72.90625 
L 49.515625 72.90625 
L 49.515625 64.59375 
L 19.828125 64.59375 
L 19.828125 46.734375 
Q 21.96875 47.46875 24.109375 47.828125 
Q 26.265625 48.1875 28.421875 48.1875 
Q 40.625 48.1875 47.75 41.5 
Q 54.890625 34.8125 54.890625 23.390625 
Q 54.890625 11.625 47.5625 5.09375 
Q 40.234375 -1.421875 26.90625 -1.421875 
Q 22.3125 -1.421875 17.546875 -0.640625 
Q 12.796875 0.140625 7.71875 1.703125 
L 7.71875 11.625 
Q 12.109375 9.234375 16.796875 8.0625 
Q 21.484375 6.890625 26.703125 6.890625 
Q 35.15625 6.890625 40.078125 11.328125 
Q 45.015625 15.765625 45.015625 23.390625 
Q 45.015625 31 40.078125 35.4375 
Q 35.15625 39.890625 26.703125 39.890625 
Q 22.75 39.890625 18.8125 39.015625 
Q 14.890625 38.140625 10.796875 36.28125 
z
" id="DejaVuSans-53"/>
      </defs>
      <g transform="translate(74.78462 322.182437)scale(0.1 -0.1)">
       <use xlink:href="#DejaVuSans-8722"/>
       <use x="83.789062" xlink:href="#DejaVuSans-49"/>
       <use x="147.412109" xlink:href="#DejaVuSans-46"/>
       <use x="179.199219" xlink:href="#DejaVuSans-53"/>
      </g>
     </g>
    </g>
    <g id="xtick_2">
     <g id="line2d_2">
      <g>
       <use style="stroke:#000000;stroke-width:0.8;" x="138.564105" xlink:href="#m4aa6df2730" y="307.584"/>
      </g>
     </g>
     <g id="text_2">
      <!-- −1.0 -->
      <defs>
       <path d="M 31.78125 66.40625 
Q 24.171875 66.40625 20.328125 58.90625 
Q 16.5 51.421875 16.5 36.375 
Q 16.5 21.390625 20.328125 13.890625 
Q 24.171875 6.390625 31.78125 6.390625 
Q 39.453125 6.390625 43.28125 13.890625 
Q 47.125 21.390625 47.125 36.375 
Q 47.125 51.421875 43.28125 58.90625 
Q 39.453125 66.40625 31.78125 66.40625 
z
M 31.78125 74.21875 
Q 44.046875 74.21875 50.515625 64.515625 
Q 56.984375 54.828125 56.984375 36.375 
Q 56.984375 17.96875 50.515625 8.265625 
Q 44.046875 -1.421875 31.78125 -1.421875 
Q 19.53125 -1.421875 13.0625 8.265625 
Q 6.59375 17.96875 6.59375 36.375 
Q 6.59375 54.828125 13.0625 64.515625 
Q 19.53125 74.21875 31.78125 74.21875 
z
" id="DejaVuSans-48"/>
      </defs>
      <g transform="translate(126.422699 322.182437)scale(0.1 -0.1)">
       <use xlink:href="#DejaVuSans-8722"/>
       <use x="83.789062" xlink:href="#DejaVuSans-49"/>
       <use x="147.412109" xlink:href="#DejaVuSans-46"/>
       <use x="179.199219" xlink:href="#DejaVuSans-48"/>
      </g>
     </g>
    </g>
    <g id="xtick_3">
     <g id="line2d_3">
      <g>
       <use style="stroke:#000000;stroke-width:0.8;" x="190.202184" xlink:href="#m4aa6df2730" y="307.584"/>
      </g>
     </g>
     <g id="text_3">
      <!-- −0.5 -->
      <g transform="translate(178.060778 322.182437)scale(0.1 -0.1)">
       <use xlink:href="#DejaVuSans-8722"/>
       <use x="83.789062" xlink:href="#DejaVuSans-48"/>
       <use x="147.412109" xlink:href="#DejaVuSans-46"/>
       <use x="179.199219" xlink:href="#DejaVuSans-53"/>
      </g>
     </g>
    </g>
    <g id="xtick_4">
     <g id="line2d_4">
      <g>
       <use style="stroke:#000000;stroke-width:0.8;" x="241.840263" xlink:href="#m4aa6df2730" y="307.584"/>
      </g>
     </g>
     <g id="text_4">
      <!-- 0.0 -->
      <g transform="translate(233.8887 322.182437)scale(0.1 -0.1)">
       <use xlink:href="#DejaVuSans-48"/>
       <use x="63.623047" xlink:href="#DejaVuSans-46"/>
       <use x="95.410156" xlink:href="#DejaVuSans-48"/>
      </g>
     </g>
    </g>
    <g id="xtick_5">
     <g id="line2d_5">
      <g>
       <use style="stroke:#000000;stroke-width:0.8;" x="293.478342" xlink:href="#m4aa6df2730" y="307.584"/>
      </g>
     </g>
     <g id="text_5">
      <!-- 0.5 -->
      <g transform="translate(285.526779 322.182437)scale(0.1 -0.1)">
       <use xlink:href="#DejaVuSans-48"/>
       <use x="63.623047" xlink:href="#DejaVuSans-46"/>
       <use x="95.410156" xlink:href="#DejaVuSans-53"/>
      </g>
     </g>
    </g>
    <g id="xtick_6">
     <g id="line2d_6">
      <g>
       <use style="stroke:#000000;stroke-width:0.8;" x="345.116421" xlink:href="#m4aa6df2730" y="307.584"/>
      </g>
     </g>
     <g id="text_6">
      <!-- 1.0 -->
      <g transform="translate(337.164858 322.182437)scale(0.1 -0.1)">
       <use xlink:href="#DejaVuSans-49"/>
       <use x="63.623047" xlink:href="#DejaVuSans-46"/>
       <use x="95.410156" xlink:href="#DejaVuSans-48"/>
      </g>
     </g>
    </g>
    <g id="xtick_7">
     <g id="line2d_7">
      <g>
       <use style="stroke:#000000;stroke-width:0.8;" x="396.754499" xlink:href="#m4aa6df2730" y="307.584"/>
      </g>
     </g>
     <g id="text_7">
      <!-- 1.5 -->
      <g transform="translate(388.802937 322.182437)scale(0.1 -0.1)">
       <use xlink:href="#DejaVuSans-49"/>
       <use x="63.623047" xlink:href="#DejaVuSans-46"/>
       <use x="95.410156" xlink:href="#DejaVuSans-53"/>
      </g>
     </g>
    </g>
    <g id="text_8">
     <!-- x [nondimensional] -->
     <defs>
      <path d="M 54.890625 54.6875 
L 35.109375 28.078125 
L 55.90625 0 
L 45.3125 0 
L 29.390625 21.484375 
L 13.484375 0 
L 2.875 0 
L 24.125 28.609375 
L 4.6875 54.6875 
L 15.28125 54.6875 
L 29.78125 35.203125 
L 44.28125 54.6875 
z
" id="DejaVuSans-120"/>
      <path id="DejaVuSans-32"/>
      <path d="M 8.59375 75.984375 
L 29.296875 75.984375 
L 29.296875 69 
L 17.578125 69 
L 17.578125 -6.203125 
L 29.296875 -6.203125 
L 29.296875 -13.1875 
L 8.59375 -13.1875 
z
" id="DejaVuSans-91"/>
      <path d="M 54.890625 33.015625 
L 54.890625 0 
L 45.90625 0 
L 45.90625 32.71875 
Q 45.90625 40.484375 42.875 44.328125 
Q 39.84375 48.1875 33.796875 48.1875 
Q 26.515625 48.1875 22.3125 43.546875 
Q 18.109375 38.921875 18.109375 30.90625 
L 18.109375 0 
L 9.078125 0 
L 9.078125 54.6875 
L 18.109375 54.6875 
L 18.109375 46.1875 
Q 21.34375 51.125 25.703125 53.5625 
Q 30.078125 56 35.796875 56 
Q 45.21875 56 50.046875 50.171875 
Q 54.890625 44.34375 54.890625 33.015625 
z
" id="DejaVuSans-110"/>
      <path d="M 30.609375 48.390625 
Q 23.390625 48.390625 19.1875 42.75 
Q 14.984375 37.109375 14.984375 27.296875 
Q 14.984375 17.484375 19.15625 11.84375 
Q 23.34375 6.203125 30.609375 6.203125 
Q 37.796875 6.203125 41.984375 11.859375 
Q 46.1875 17.53125 46.1875 27.296875 
Q 46.1875 37.015625 41.984375 42.703125 
Q 37.796875 48.390625 30.609375 48.390625 
z
M 30.609375 56 
Q 42.328125 56 49.015625 48.375 
Q 55.71875 40.765625 55.71875 27.296875 
Q 55.71875 13.875 49.015625 6.21875 
Q 42.328125 -1.421875 30.609375 -1.421875 
Q 18.84375 -1.421875 12.171875 6.21875 
Q 5.515625 13.875 5.515625 27.296875 
Q 5.515625 40.765625 12.171875 48.375 
Q 18.84375 56 30.609375 56 
z
" id="DejaVuSans-111"/>
      <path d="M 45.40625 46.390625 
L 45.40625 75.984375 
L 54.390625 75.984375 
L 54.390625 0 
L 45.40625 0 
L 45.40625 8.203125 
Q 42.578125 3.328125 38.25 0.953125 
Q 33.9375 -1.421875 27.875 -1.421875 
Q 17.96875 -1.421875 11.734375 6.484375 
Q 5.515625 14.40625 5.515625 27.296875 
Q 5.515625 40.1875 11.734375 48.09375 
Q 17.96875 56 27.875 56 
Q 33.9375 56 38.25 53.625 
Q 42.578125 51.265625 45.40625 46.390625 
z
M 14.796875 27.296875 
Q 14.796875 17.390625 18.875 11.75 
Q 22.953125 6.109375 30.078125 6.109375 
Q 37.203125 6.109375 41.296875 11.75 
Q 45.40625 17.390625 45.40625 27.296875 
Q 45.40625 37.203125 41.296875 42.84375 
Q 37.203125 48.484375 30.078125 48.484375 
Q 22.953125 48.484375 18.875 42.84375 
Q 14.796875 37.203125 14.796875 27.296875 
z
" id="DejaVuSans-100"/>
      <path d="M 9.421875 54.6875 
L 18.40625 54.6875 
L 18.40625 0 
L 9.421875 0 
z
M 9.421875 75.984375 
L 18.40625 75.984375 
L 18.40625 64.59375 
L 9.421875 64.59375 
z
" id="DejaVuSans-105"/>
      <path d="M 52 44.1875 
Q 55.375 50.25 60.0625 53.125 
Q 64.75 56 71.09375 56 
Q 79.640625 56 84.28125 50.015625 
Q 88.921875 44.046875 88.921875 33.015625 
L 88.921875 0 
L 79.890625 0 
L 79.890625 32.71875 
Q 79.890625 40.578125 77.09375 44.375 
Q 74.3125 48.1875 68.609375 48.1875 
Q 61.625 48.1875 57.5625 43.546875 
Q 53.515625 38.921875 53.515625 30.90625 
L 53.515625 0 
L 44.484375 0 
L 44.484375 32.71875 
Q 44.484375 40.625 41.703125 44.40625 
Q 38.921875 48.1875 33.109375 48.1875 
Q 26.21875 48.1875 22.15625 43.53125 
Q 18.109375 38.875 18.109375 30.90625 
L 18.109375 0 
L 9.078125 0 
L 9.078125 54.6875 
L 18.109375 54.6875 
L 18.109375 46.1875 
Q 21.1875 51.21875 25.484375 53.609375 
Q 29.78125 56 35.6875 56 
Q 41.65625 56 45.828125 52.96875 
Q 50 49.953125 52 44.1875 
z
" id="DejaVuSans-109"/>
      <path d="M 56.203125 29.59375 
L 56.203125 25.203125 
L 14.890625 25.203125 
Q 15.484375 15.921875 20.484375 11.0625 
Q 25.484375 6.203125 34.421875 6.203125 
Q 39.59375 6.203125 44.453125 7.46875 
Q 49.3125 8.734375 54.109375 11.28125 
L 54.109375 2.78125 
Q 49.265625 0.734375 44.1875 -0.34375 
Q 39.109375 -1.421875 33.890625 -1.421875 
Q 20.796875 -1.421875 13.15625 6.1875 
Q 5.515625 13.8125 5.515625 26.8125 
Q 5.515625 40.234375 12.765625 48.109375 
Q 20.015625 56 32.328125 56 
Q 43.359375 56 49.78125 48.890625 
Q 56.203125 41.796875 56.203125 29.59375 
z
M 47.21875 32.234375 
Q 47.125 39.59375 43.09375 43.984375 
Q 39.0625 48.390625 32.421875 48.390625 
Q 24.90625 48.390625 20.390625 44.140625 
Q 15.875 39.890625 15.1875 32.171875 
z
" id="DejaVuSans-101"/>
      <path d="M 44.28125 53.078125 
L 44.28125 44.578125 
Q 40.484375 46.53125 36.375 47.5 
Q 32.28125 48.484375 27.875 48.484375 
Q 21.1875 48.484375 17.84375 46.4375 
Q 14.5 44.390625 14.5 40.28125 
Q 14.5 37.15625 16.890625 35.375 
Q 19.28125 33.59375 26.515625 31.984375 
L 29.59375 31.296875 
Q 39.15625 29.25 43.1875 25.515625 
Q 47.21875 21.78125 47.21875 15.09375 
Q 47.21875 7.46875 41.1875 3.015625 
Q 35.15625 -1.421875 24.609375 -1.421875 
Q 20.21875 -1.421875 15.453125 -0.5625 
Q 10.6875 0.296875 5.421875 2 
L 5.421875 11.28125 
Q 10.40625 8.6875 15.234375 7.390625 
Q 20.0625 6.109375 24.8125 6.109375 
Q 31.15625 6.109375 34.5625 8.28125 
Q 37.984375 10.453125 37.984375 14.40625 
Q 37.984375 18.0625 35.515625 20.015625 
Q 33.0625 21.96875 24.703125 23.78125 
L 21.578125 24.515625 
Q 13.234375 26.265625 9.515625 29.90625 
Q 5.8125 33.546875 5.8125 39.890625 
Q 5.8125 47.609375 11.28125 51.796875 
Q 16.75 56 26.8125 56 
Q 31.78125 56 36.171875 55.265625 
Q 40.578125 54.546875 44.28125 53.078125 
z
" id="DejaVuSans-115"/>
      <path d="M 34.28125 27.484375 
Q 23.390625 27.484375 19.1875 25 
Q 14.984375 22.515625 14.984375 16.5 
Q 14.984375 11.71875 18.140625 8.90625 
Q 21.296875 6.109375 26.703125 6.109375 
Q 34.1875 6.109375 38.703125 11.40625 
Q 43.21875 16.703125 43.21875 25.484375 
L 43.21875 27.484375 
z
M 52.203125 31.203125 
L 52.203125 0 
L 43.21875 0 
L 43.21875 8.296875 
Q 40.140625 3.328125 35.546875 0.953125 
Q 30.953125 -1.421875 24.3125 -1.421875 
Q 15.921875 -1.421875 10.953125 3.296875 
Q 6 8.015625 6 15.921875 
Q 6 25.140625 12.171875 29.828125 
Q 18.359375 34.515625 30.609375 34.515625 
L 43.21875 34.515625 
L 43.21875 35.40625 
Q 43.21875 41.609375 39.140625 45 
Q 35.0625 48.390625 27.6875 48.390625 
Q 23 48.390625 18.546875 47.265625 
Q 14.109375 46.140625 10.015625 43.890625 
L 10.015625 52.203125 
Q 14.9375 54.109375 19.578125 55.046875 
Q 24.21875 56 28.609375 56 
Q 40.484375 56 46.34375 49.84375 
Q 52.203125 43.703125 52.203125 31.203125 
z
" id="DejaVuSans-97"/>
      <path d="M 9.421875 75.984375 
L 18.40625 75.984375 
L 18.40625 0 
L 9.421875 0 
z
" id="DejaVuSans-108"/>
      <path d="M 30.421875 75.984375 
L 30.421875 -13.1875 
L 9.71875 -13.1875 
L 9.71875 -6.203125 
L 21.390625 -6.203125 
L 21.390625 69 
L 9.71875 69 
L 9.71875 75.984375 
z
" id="DejaVuSans-93"/>
     </defs>
     <g transform="translate(187.959219 335.860562)scale(0.1 -0.1)">
      <use xlink:href="#DejaVuSans-120"/>
      <use x="59.179688" xlink:href="#DejaVuSans-32"/>
      <use x="90.966797" xlink:href="#DejaVuSans-91"/>
      <use x="129.980469" xlink:href="#DejaVuSans-110"/>
      <use x="193.359375" xlink:href="#DejaVuSans-111"/>
      <use x="254.541016" xlink:href="#DejaVuSans-110"/>
      <use x="317.919922" xlink:href="#DejaVuSans-100"/>
      <use x="381.396484" xlink:href="#DejaVuSans-105"/>
      <use x="409.179688" xlink:href="#DejaVuSans-109"/>
      <use x="506.591797" xlink:href="#DejaVuSans-101"/>
      <use x="568.115234" xlink:href="#DejaVuSans-110"/>
      <use x="631.494141" xlink:href="#DejaVuSans-115"/>
      <use x="683.59375" xlink:href="#DejaVuSans-105"/>
      <use x="711.376953" xlink:href="#DejaVuSans-111"/>
      <use x="772.558594" xlink:href="#DejaVuSans-110"/>
      <use x="835.9375" xlink:href="#DejaVuSans-97"/>
      <use x="897.216797" xlink:href="#DejaVuSans-108"/>
      <use x="925" xlink:href="#DejaVuSans-93"/>
     </g>
    </g>
   </g>
   <g id="matplotlib.axis_2">
    <g id="ytick_1">
     <g id="line2d_8">
      <defs>
       <path d="M 0 0 
L -3.5 0 
" id="mc253299fe1" style="stroke:#000000;stroke-width:0.8;"/>
      </defs>
      <g>
       <use style="stroke:#000000;stroke-width:0.8;" x="57.6" xlink:href="#mc253299fe1" y="277.578934"/>
      </g>
     </g>
     <g id="text_9">
      <!-- −1.0 -->
      <g transform="translate(26.317187 281.378153)scale(0.1 -0.1)">
       <use xlink:href="#DejaVuSans-8722"/>
       <use x="83.789062" xlink:href="#DejaVuSans-49"/>
       <use x="147.412109" xlink:href="#DejaVuSans-46"/>
       <use x="179.199219" xlink:href="#DejaVuSans-48"/>
      </g>
     </g>
    </g>
    <g id="ytick_2">
     <g id="line2d_9">
      <g>
       <use style="stroke:#000000;stroke-width:0.8;" x="57.6" xlink:href="#mc253299fe1" y="225.940856"/>
      </g>
     </g>
     <g id="text_10">
      <!-- −0.5 -->
      <g transform="translate(26.317187 229.740074)scale(0.1 -0.1)">
       <use xlink:href="#DejaVuSans-8722"/>
       <use x="83.789062" xlink:href="#DejaVuSans-48"/>
       <use x="147.412109" xlink:href="#DejaVuSans-46"/>
       <use x="179.199219" xlink:href="#DejaVuSans-53"/>
      </g>
     </g>
    </g>
    <g id="ytick_3">
     <g id="line2d_10">
      <g>
       <use style="stroke:#000000;stroke-width:0.8;" x="57.6" xlink:href="#mc253299fe1" y="174.302777"/>
      </g>
     </g>
     <g id="text_11">
      <!-- 0.0 -->
      <g transform="translate(34.696875 178.101996)scale(0.1 -0.1)">
       <use xlink:href="#DejaVuSans-48"/>
       <use x="63.623047" xlink:href="#DejaVuSans-46"/>
       <use x="95.410156" xlink:href="#DejaVuSans-48"/>
      </g>
     </g>
    </g>
    <g id="ytick_4">
     <g id="line2d_11">
      <g>
       <use style="stroke:#000000;stroke-width:0.8;" x="57.6" xlink:href="#mc253299fe1" y="122.664698"/>
      </g>
     </g>
     <g id="text_12">
      <!-- 0.5 -->
      <g transform="translate(34.696875 126.463917)scale(0.1 -0.1)">
       <use xlink:href="#DejaVuSans-48"/>
       <use x="63.623047" xlink:href="#DejaVuSans-46"/>
       <use x="95.410156" xlink:href="#DejaVuSans-53"/>
      </g>
     </g>
    </g>
    <g id="ytick_5">
     <g id="line2d_12">
      <g>
       <use style="stroke:#000000;stroke-width:0.8;" x="57.6" xlink:href="#mc253299fe1" y="71.026619"/>
      </g>
     </g>
     <g id="text_13">
      <!-- 1.0 -->
      <g transform="translate(34.696875 74.825838)scale(0.1 -0.1)">
       <use xlink:href="#DejaVuSans-49"/>
       <use x="63.623047" xlink:href="#DejaVuSans-46"/>
       <use x="95.410156" xlink:href="#DejaVuSans-48"/>
      </g>
     </g>
    </g>
    <g id="text_14">
     <!-- y [nondimensional] -->
     <defs>
      <path d="M 32.171875 -5.078125 
Q 28.375 -14.84375 24.75 -17.8125 
Q 21.140625 -20.796875 15.09375 -20.796875 
L 7.90625 -20.796875 
L 7.90625 -13.28125 
L 13.1875 -13.28125 
Q 16.890625 -13.28125 18.9375 -11.515625 
Q 21 -9.765625 23.484375 -3.21875 
L 25.09375 0.875 
L 2.984375 54.6875 
L 12.5 54.6875 
L 29.59375 11.921875 
L 46.6875 54.6875 
L 56.203125 54.6875 
z
" id="DejaVuSans-121"/>
     </defs>
     <g transform="translate(20.2375 222.728781)rotate(-90)scale(0.1 -0.1)">
      <use xlink:href="#DejaVuSans-121"/>
      <use x="59.179688" xlink:href="#DejaVuSans-32"/>
      <use x="90.966797" xlink:href="#DejaVuSans-91"/>
      <use x="129.980469" xlink:href="#DejaVuSans-110"/>
      <use x="193.359375" xlink:href="#DejaVuSans-111"/>
      <use x="254.541016" xlink:href="#DejaVuSans-110"/>
      <use x="317.919922" xlink:href="#DejaVuSans-100"/>
      <use x="381.396484" xlink:href="#DejaVuSans-105"/>
      <use x="409.179688" xlink:href="#DejaVuSans-109"/>
      <use x="506.591797" xlink:href="#DejaVuSans-101"/>
      <use x="568.115234" xlink:href="#DejaVuSans-110"/>
      <use x="631.494141" xlink:href="#DejaVuSans-115"/>
      <use x="683.59375" xlink:href="#DejaVuSans-105"/>
      <use x="711.376953" xlink:href="#DejaVuSans-111"/>
      <use x="772.558594" xlink:href="#DejaVuSans-110"/>
      <use x="835.9375" xlink:href="#DejaVuSans-97"/>
      <use x="897.216797" xlink:href="#DejaVuSans-108"/>
      <use x="925" xlink:href="#DejaVuSans-93"/>
     </g>
    </g>
   </g>
   <g id="line2d_13">
    <path clip-path="url(#p46efa1f7f0)" d="M 212.344505 57.311115 
L 213.338755 56.03097 
L 214.559521 54.988074 
L 215.978198 54.216613 
L 217.556935 53.739743 
L 219.251239 53.568 
L 221.013173 53.698923 
L 222.794806 54.117913 
L 224.551538 54.800188 
L 226.244958 55.713571 
L 227.844959 56.821748 
L 229.330921 58.087598 
L 230.691928 59.476203 
L 231.926052 60.957221 
L 233.038893 62.506401 
L 234.948725 65.745228 
L 236.538505 69.121181 
L 237.919157 72.621017 
L 239.741215 78.086879 
L 241.328349 83.703503 
L 243.145333 91.162001 
L 247.902042 111.697219 
L 249.902007 119.081692 
L 252.135168 126.352636 
L 256.363515 139.146033 
L 259.322021 148.224143 
L 260.34313 151.897242 
L 261.170343 155.631691 
L 261.744061 159.425965 
L 262.038113 163.256048 
L 262.069509 167.090019 
L 261.890512 170.906209 
L 261.368141 176.597904 
L 260.407664 184.195308 
L 259.495659 189.898698 
L 258.364178 195.53612 
L 257.010813 201.077552 
L 254.939116 208.405227 
L 251.513825 219.410194 
L 248.756019 228.496173 
L 247.286165 234.012448 
L 245.516065 241.5196 
L 242.718596 254.573635 
L 240.294816 265.805177 
L 238.866965 271.444776 
L 237.222376 276.905324 
L 235.946636 280.410853 
L 234.429503 283.814061 
L 233.542736 285.473033 
L 232.549562 287.092791 
L 231.43693 288.657306 
L 230.196473 290.143362 
L 228.826552 291.520901 
L 227.333907 292.754351 
L 225.73466 293.804895 
L 224.054473 294.633477 
L 222.327767 295.20424 
L 220.596011 295.488 
L 218.905203 295.46534 
L 217.302791 295.128935 
L 215.834343 294.484796 
L 214.540308 293.552272 
L 213.453233 292.362757 
L 212.595723 290.957266 
L 211.979348 289.383133 
L 211.604595 287.690217 
L 211.461833 285.927052 
L 211.533121 284.137369 
L 211.794621 282.357347 
L 212.219303 280.613867 
L 212.779595 278.923879 
L 214.20734 275.726244 
L 215.91891 272.740051 
L 217.826391 269.882529 
L 220.981296 265.685091 
L 224.407692 261.542681 
L 233.55258 250.7974 
L 236.717953 246.595541 
L 239.765001 242.21961 
L 242.646687 237.746459 
L 245.276714 233.209581 
L 247.638398 228.563101 
L 249.797274 223.770163 
L 251.80174 218.870822 
L 253.6166 213.932372 
L 255.180159 208.964127 
L 256.495599 203.922713 
L 257.623021 198.792961 
L 258.586805 193.62098 
L 259.335025 188.454165 
L 259.809556 183.282404 
L 260.024402 178.068416 
L 260.03929 172.818862 
L 259.868652 167.587974 
L 259.459746 162.408873 
L 258.772331 157.257135 
L 257.843316 152.102124 
L 256.337387 145.27192 
L 254.997787 140.247418 
L 253.412163 135.303674 
L 251.574754 130.397216 
L 248.842502 123.926289 
L 246.61531 119.20768 
L 244.168814 114.63271 
L 241.452692 110.152895 
L 238.515033 105.736418 
L 235.447876 101.433903 
L 232.271908 97.309361 
L 228.937118 93.320233 
L 220.873578 83.867266 
L 217.715728 79.708652 
L 215.788405 76.88952 
L 214.025717 73.956409 
L 212.498629 70.821919 
L 211.866975 69.162627 
L 211.356255 67.445345 
L 210.995328 65.683471 
L 210.813786 63.900164 
L 210.839237 62.128054 
L 211.094403 60.407852 
L 211.594398 58.785933 
L 212.344505 57.311115 
L 212.344505 57.311115 
" style="fill:none;stroke:#000000;stroke-linecap:square;stroke-width:1.5;"/>
   </g>
   <g id="line2d_14">
    <path clip-path="url(#p46efa1f7f0)" d="M 208.033893 58.04605 
L 208.973557 56.668546 
L 210.154505 55.526847 
L 211.548693 54.659262 
L 213.118237 54.0928 
L 214.817998 53.841264 
L 216.598843 53.904619 
L 218.411218 54.269675 
L 220.208656 54.911975 
L 221.950844 55.798623 
L 223.605934 56.891693 
L 225.151912 58.151781 
L 226.576926 59.541306 
L 227.878626 61.027175 
L 229.062691 62.58259 
L 231.128155 65.830167 
L 232.896815 69.203045 
L 234.485791 72.688192 
L 236.680194 78.124232 
L 238.70482 83.717664 
L 242.390838 94.819343 
L 246.752554 107.775394 
L 249.415501 115.168349 
L 252.278706 122.378852 
L 260.499811 142.252179 
L 262.467693 147.741997 
L 263.60024 151.464705 
L 264.514893 155.258837 
L 265.154046 159.118381 
L 265.491476 163.016639 
L 265.546262 166.920945 
L 265.377519 170.810242 
L 264.867687 176.618501 
L 263.936691 184.378463 
L 263.00334 190.190772 
L 262.198927 194.01532 
L 261.225766 197.776636 
L 259.481862 203.313173 
L 256.819285 210.623432 
L 246.541851 237.93836 
L 243.507968 247.259346 
L 235.30586 273.292688 
L 233.227362 278.664321 
L 231.654411 282.122626 
L 229.80427 285.477658 
L 228.734563 287.099336 
L 227.54982 288.66265 
L 226.241688 290.142808 
L 224.808781 291.50824 
L 223.258306 292.722053 
L 221.607032 293.744428 
L 219.881413 294.535731 
L 218.116757 295.060024 
L 216.355468 295.288578 
L 214.644489 295.202967 
L 213.032172 294.797344 
L 211.564895 294.079607 
L 210.283785 293.071278 
L 209.221881 291.806078 
L 208.402055 290.327361 
L 207.835888 288.684667 
L 207.523606 286.929817 
L 207.455043 285.112968 
L 207.611481 283.279077 
L 207.968106 281.465141 
L 208.49678 279.698464 
L 209.168772 277.996078 
L 209.957162 276.36527 
L 211.79461 273.308294 
L 213.880038 270.460527 
L 216.153041 267.73156 
L 219.860786 263.742284 
L 223.81873 259.860511 
L 231.676551 252.320917 
L 235.358416 248.389445 
L 238.906367 244.237053 
L 242.304319 239.92677 
L 245.457114 235.516033 
L 247.387397 232.507354 
L 250.045534 227.847706 
L 252.490534 223.011752 
L 254.752695 218.069243 
L 256.776076 213.079931 
L 258.504093 208.027091 
L 259.960671 202.865884 
L 261.210178 197.60858 
L 262.257837 192.320013 
L 263.036347 187.03498 
L 263.497188 181.723708 
L 263.673939 176.355698 
L 263.627319 170.964279 
L 263.353659 165.614646 
L 262.790756 160.323743 
L 261.912692 155.052792 
L 260.774771 149.784245 
L 259.44108 144.567069 
L 257.898209 139.460126 
L 256.081032 134.457463 
L 253.97438 129.510839 
L 251.641446 124.62065 
L 249.133713 119.858443 
L 246.412661 115.280624 
L 243.403401 110.859064 
L 240.11032 106.538408 
L 236.627532 102.339751 
L 233.024282 98.344679 
L 229.274556 94.559854 
L 217.496264 83.18974 
L 213.950071 79.215846 
L 211.796286 76.455813 
L 209.857084 73.502946 
L 208.998523 71.925201 
L 208.240545 70.271919 
L 207.609094 68.546023 
L 207.13338 66.759865 
L 206.843707 64.936188 
L 206.768762 63.108011 
L 206.932656 61.317331 
L 207.352076 59.612728 
L 208.033893 58.04605 
L 208.033893 58.04605 
" style="fill:none;stroke:#0000ff;stroke-linecap:square;stroke-width:1.5;"/>
   </g>
   <g id="patch_3">
    <path d="M 57.6 307.584 
L 57.6 41.472 
" style="fill:none;stroke:#000000;stroke-linecap:square;stroke-linejoin:miter;stroke-width:0.8;"/>
   </g>
   <g id="patch_4">
    <path d="M 414.72 307.584 
L 414.72 41.472 
" style="fill:none;stroke:#000000;stroke-linecap:square;stroke-linejoin:miter;stroke-width:0.8;"/>
   </g>
   <g id="patch_5">
    <path d="M 57.6 307.584 
L 414.72 307.584 
" style="fill:none;stroke:#000000;stroke-linecap:square;stroke-linejoin:miter;stroke-width:0.8;"/>
   </g>
   <g id="patch_6">
    <path d="M 57.6 41.472 
L 414.72 41.472 
" style="fill:none;stroke:#000000;stroke-linecap:square;stroke-linejoin:miter;stroke-width:0.8;"/>
   </g>
   <g id="legend_1">
    <g id="patch_7">
     <path d="M 331.874688 78.82825 
L 407.72 78.82825 
Q 409.72 78.82825 409.72 76.82825 
L 409.72 48.472 
Q 409.72 46.472 407.72 46.472 
L 331.874688 46.472 
Q 329.874688 46.472 329.874688 48.472 
L 329.874688 76.82825 
Q 329.874688 78.82825 331.874688 78.82825 
z
" style="fill:#ffffff;opacity:0.8;stroke:#cccccc;stroke-linejoin:miter;"/>
    </g>
    <g id="line2d_15">
     <path d="M 333.874688 54.570437 
L 353.874688 54.570437 
" style="fill:none;stroke:#000000;stroke-linecap:square;stroke-width:1.5;"/>
    </g>
    <g id="line2d_16"/>
    <g id="text_15">
     <!-- Target -->
     <defs>
      <path d="M -0.296875 72.90625 
L 61.375 72.90625 
L 61.375 64.59375 
L 35.5 64.59375 
L 35.5 0 
L 25.59375 0 
L 25.59375 64.59375 
L -0.296875 64.59375 
z
" id="DejaVuSans-84"/>
      <path d="M 41.109375 46.296875 
Q 39.59375 47.171875 37.8125 47.578125 
Q 36.03125 48 33.890625 48 
Q 26.265625 48 22.1875 43.046875 
Q 18.109375 38.09375 18.109375 28.8125 
L 18.109375 0 
L 9.078125 0 
L 9.078125 54.6875 
L 18.109375 54.6875 
L 18.109375 46.1875 
Q 20.953125 51.171875 25.484375 53.578125 
Q 30.03125 56 36.53125 56 
Q 37.453125 56 38.578125 55.875 
Q 39.703125 55.765625 41.0625 55.515625 
z
" id="DejaVuSans-114"/>
      <path d="M 45.40625 27.984375 
Q 45.40625 37.75 41.375 43.109375 
Q 37.359375 48.484375 30.078125 48.484375 
Q 22.859375 48.484375 18.828125 43.109375 
Q 14.796875 37.75 14.796875 27.984375 
Q 14.796875 18.265625 18.828125 12.890625 
Q 22.859375 7.515625 30.078125 7.515625 
Q 37.359375 7.515625 41.375 12.890625 
Q 45.40625 18.265625 45.40625 27.984375 
z
M 54.390625 6.78125 
Q 54.390625 -7.171875 48.1875 -13.984375 
Q 42 -20.796875 29.203125 -20.796875 
Q 24.46875 -20.796875 20.265625 -20.09375 
Q 16.0625 -19.390625 12.109375 -17.921875 
L 12.109375 -9.1875 
Q 16.0625 -11.328125 19.921875 -12.34375 
Q 23.78125 -13.375 27.78125 -13.375 
Q 36.625 -13.375 41.015625 -8.765625 
Q 45.40625 -4.15625 45.40625 5.171875 
L 45.40625 9.625 
Q 42.625 4.78125 38.28125 2.390625 
Q 33.9375 0 27.875 0 
Q 17.828125 0 11.671875 7.65625 
Q 5.515625 15.328125 5.515625 27.984375 
Q 5.515625 40.671875 11.671875 48.328125 
Q 17.828125 56 27.875 56 
Q 33.9375 56 38.28125 53.609375 
Q 42.625 51.21875 45.40625 46.390625 
L 45.40625 54.6875 
L 54.390625 54.6875 
z
" id="DejaVuSans-103"/>
      <path d="M 18.3125 70.21875 
L 18.3125 54.6875 
L 36.8125 54.6875 
L 36.8125 47.703125 
L 18.3125 47.703125 
L 18.3125 18.015625 
Q 18.3125 11.328125 20.140625 9.421875 
Q 21.96875 7.515625 27.59375 7.515625 
L 36.8125 7.515625 
L 36.8125 0 
L 27.59375 0 
Q 17.1875 0 13.234375 3.875 
Q 9.28125 7.765625 9.28125 18.015625 
L 9.28125 47.703125 
L 2.6875 47.703125 
L 2.6875 54.6875 
L 9.28125 54.6875 
L 9.28125 70.21875 
z
" id="DejaVuSans-116"/>
     </defs>
     <g transform="translate(361.874688 58.070437)scale(0.1 -0.1)">
      <use xlink:href="#DejaVuSans-84"/>
      <use x="60.833984" xlink:href="#DejaVuSans-97"/>
      <use x="122.113281" xlink:href="#DejaVuSans-114"/>
      <use x="163.210938" xlink:href="#DejaVuSans-103"/>
      <use x="226.6875" xlink:href="#DejaVuSans-101"/>
      <use x="288.210938" xlink:href="#DejaVuSans-116"/>
     </g>
    </g>
    <g id="line2d_17">
     <path d="M 333.874688 69.248562 
L 353.874688 69.248562 
" style="fill:none;stroke:#0000ff;stroke-linecap:square;stroke-width:1.5;"/>
    </g>
    <g id="line2d_18"/>
    <g id="text_16">
     <!-- Sampled -->
     <defs>
      <path d="M 53.515625 70.515625 
L 53.515625 60.890625 
Q 47.90625 63.578125 42.921875 64.890625 
Q 37.9375 66.21875 33.296875 66.21875 
Q 25.25 66.21875 20.875 63.09375 
Q 16.5 59.96875 16.5 54.203125 
Q 16.5 49.359375 19.40625 46.890625 
Q 22.3125 44.4375 30.421875 42.921875 
L 36.375 41.703125 
Q 47.40625 39.59375 52.65625 34.296875 
Q 57.90625 29 57.90625 20.125 
Q 57.90625 9.515625 50.796875 4.046875 
Q 43.703125 -1.421875 29.984375 -1.421875 
Q 24.8125 -1.421875 18.96875 -0.25 
Q 13.140625 0.921875 6.890625 3.21875 
L 6.890625 13.375 
Q 12.890625 10.015625 18.65625 8.296875 
Q 24.421875 6.59375 29.984375 6.59375 
Q 38.421875 6.59375 43.015625 9.90625 
Q 47.609375 13.234375 47.609375 19.390625 
Q 47.609375 24.75 44.3125 27.78125 
Q 41.015625 30.8125 33.5 32.328125 
L 27.484375 33.5 
Q 16.453125 35.6875 11.515625 40.375 
Q 6.59375 45.0625 6.59375 53.421875 
Q 6.59375 63.09375 13.40625 68.65625 
Q 20.21875 74.21875 32.171875 74.21875 
Q 37.3125 74.21875 42.625 73.28125 
Q 47.953125 72.359375 53.515625 70.515625 
z
" id="DejaVuSans-83"/>
      <path d="M 18.109375 8.203125 
L 18.109375 -20.796875 
L 9.078125 -20.796875 
L 9.078125 54.6875 
L 18.109375 54.6875 
L 18.109375 46.390625 
Q 20.953125 51.265625 25.265625 53.625 
Q 29.59375 56 35.59375 56 
Q 45.5625 56 51.78125 48.09375 
Q 58.015625 40.1875 58.015625 27.296875 
Q 58.015625 14.40625 51.78125 6.484375 
Q 45.5625 -1.421875 35.59375 -1.421875 
Q 29.59375 -1.421875 25.265625 0.953125 
Q 20.953125 3.328125 18.109375 8.203125 
z
M 48.6875 27.296875 
Q 48.6875 37.203125 44.609375 42.84375 
Q 40.53125 48.484375 33.40625 48.484375 
Q 26.265625 48.484375 22.1875 42.84375 
Q 18.109375 37.203125 18.109375 27.296875 
Q 18.109375 17.390625 22.1875 11.75 
Q 26.265625 6.109375 33.40625 6.109375 
Q 40.53125 6.109375 44.609375 11.75 
Q 48.6875 17.390625 48.6875 27.296875 
z
" id="DejaVuSans-112"/>
     </defs>
     <g transform="translate(361.874688 72.748562)scale(0.1 -0.1)">
      <use xlink:href="#DejaVuSans-83"/>
      <use x="63.476562" xlink:href="#DejaVuSans-97"/>
      <use x="124.755859" xlink:href="#DejaVuSans-109"/>
      <use x="222.167969" xlink:href="#DejaVuSans-112"/>
      <use x="285.644531" xlink:href="#DejaVuSans-108"/>
      <use x="313.427734" xlink:href="#DejaVuSans-101"/>
      <use x="374.951172" xlink:href="#DejaVuSans-100"/>
     </g>
    </g>
   </g>
  </g>
 </g>
 <defs>
  <clipPath id="p46efa1f7f0">
   <rect height="266.112" width="357.12" x="57.6" y="41.472"/>
  </clipPath>
 </defs>
</svg>
