<?xml version="1.0" encoding="utf-8" standalone="no"?>
<!DOCTYPE svg PUBLIC "-//W3C//DTD SVG 1.1//EN"
  "http://www.w3.org/Graphics/SVG/1.1/DTD/svg11.dtd">
<svg height="345.6pt" version="1.1" viewBox="0 0 460.8 345.6" width="460.8pt" xmlns="http://www.w3.org/2000/svg" xmlns:xlink="http://www.w3.org/1999/xlink">
 <metadata>
  <rdf:RDF xmlns:cc="http://creativecommons.org/ns#" xmlns:dc="http://purl.org/dc/elements/1.1/" xmlns:rdf="http://www.w3.org/1999/02/22-rdf-syntax-ns#">
   <cc:Work>
    <dc:type rdf:resource="http://purl.org/dc/dcmitype/StillImage"/>
    <dc:date>2022-12-02T12:09:00.802881</dc:date>
    <dc:format>image/svg+xml</dc:format>
    <dc:creator>
     <cc:Agent>
      <dc:title>Matplotlib v3.4.3, https://matplotlib.org/</dc:title>
     </cc:Agent>
    </dc:creator>
   </cc:Work>
  </rdf:RDF>
 </metadata>
 <defs>
  <style type="text/css">*{stroke-linecap:butt;stroke-linejoin:round;}</style>
 </defs>
 <g id="figure_1">
  <g id="patch_1">
   <path d="M 0 345.6 
L 460.8 345.6 
L 460.8 0 
L 0 0 
z
" style="fill:#ffffff;"/>
  </g>
  <g id="axes_1">
   <g id="patch_2">
    <path d="M 57.6 307.584 
L 414.72 307.584 
L 414.72 41.472 
L 57.6 41.472 
z
" style="fill:#ffffff;"/>
   </g>
   <g id="PathCollection_1">
    <defs>
     <path d="M 0 3 
C 0.795609 3 1.55874 2.683901 2.12132 2.12132 
C 2.683901 1.55874 3 0.795609 3 0 
C 3 -0.795609 2.683901 -1.55874 2.12132 -2.12132 
C 1.55874 -2.683901 0.795609 -3 0 -3 
C -0.795609 -3 -1.55874 -2.683901 -2.12132 -2.12132 
C -2.683901 -1.55874 -3 -0.795609 -3 0 
C -3 0.795609 -2.683901 1.55874 -2.12132 2.12132 
C -1.55874 2.683901 -0.795609 3 0 3 
z
" id="m30373e1997" style="stroke:#000000;"/>
    </defs>
    <g clip-path="url(#pa5f3dac09a)">
     <use style="stroke:#000000;" x="73.832727" xlink:href="#m30373e1997" y="53.568"/>
     <use style="stroke:#000000;" x="75.191114" xlink:href="#m30373e1997" y="54.022395"/>
     <use style="stroke:#000000;" x="76.549502" xlink:href="#m30373e1997" y="72.511895"/>
     <use style="stroke:#000000;" x="77.907889" xlink:href="#m30373e1997" y="77.368824"/>
     <use style="stroke:#000000;" x="79.266276" xlink:href="#m30373e1997" y="81.386303"/>
     <use style="stroke:#000000;" x="80.624663" xlink:href="#m30373e1997" y="95.665536"/>
     <use style="stroke:#000000;" x="81.983051" xlink:href="#m30373e1997" y="97.232882"/>
     <use style="stroke:#000000;" x="83.341438" xlink:href="#m30373e1997" y="100.977085"/>
     <use style="stroke:#000000;" x="84.699825" xlink:href="#m30373e1997" y="101.504823"/>
     <use style="stroke:#000000;" x="86.058212" xlink:href="#m30373e1997" y="101.863424"/>
     <use style="stroke:#000000;" x="87.416599" xlink:href="#m30373e1997" y="101.870836"/>
     <use style="stroke:#000000;" x="88.774987" xlink:href="#m30373e1997" y="105.772911"/>
     <use style="stroke:#000000;" x="90.133374" xlink:href="#m30373e1997" y="106.435367"/>
     <use style="stroke:#000000;" x="91.491761" xlink:href="#m30373e1997" y="107.727301"/>
     <use style="stroke:#000000;" x="92.850148" xlink:href="#m30373e1997" y="108.293608"/>
     <use style="stroke:#000000;" x="94.208536" xlink:href="#m30373e1997" y="108.770121"/>
     <use style="stroke:#000000;" x="95.566923" xlink:href="#m30373e1997" y="111.332451"/>
     <use style="stroke:#000000;" x="96.92531" xlink:href="#m30373e1997" y="112.871756"/>
     <use style="stroke:#000000;" x="98.283697" xlink:href="#m30373e1997" y="113.502149"/>
     <use style="stroke:#000000;" x="99.642084" xlink:href="#m30373e1997" y="113.901026"/>
     <use style="stroke:#000000;" x="101.000472" xlink:href="#m30373e1997" y="119.636847"/>
     <use style="stroke:#000000;" x="102.358859" xlink:href="#m30373e1997" y="123.841357"/>
     <use style="stroke:#000000;" x="103.717246" xlink:href="#m30373e1997" y="124.343191"/>
     <use style="stroke:#000000;" x="105.075633" xlink:href="#m30373e1997" y="124.930694"/>
     <use style="stroke:#000000;" x="106.434021" xlink:href="#m30373e1997" y="126.515819"/>
     <use style="stroke:#000000;" x="107.792408" xlink:href="#m30373e1997" y="127.792136"/>
     <use style="stroke:#000000;" x="109.150795" xlink:href="#m30373e1997" y="128.312918"/>
     <use style="stroke:#000000;" x="110.509182" xlink:href="#m30373e1997" y="130.652694"/>
     <use style="stroke:#000000;" x="111.867569" xlink:href="#m30373e1997" y="133.074463"/>
     <use style="stroke:#000000;" x="113.225957" xlink:href="#m30373e1997" y="133.680561"/>
     <use style="stroke:#000000;" x="114.584344" xlink:href="#m30373e1997" y="135.36485"/>
     <use style="stroke:#000000;" x="115.942731" xlink:href="#m30373e1997" y="136.728422"/>
     <use style="stroke:#000000;" x="117.301118" xlink:href="#m30373e1997" y="136.805778"/>
     <use style="stroke:#000000;" x="118.659506" xlink:href="#m30373e1997" y="137.622756"/>
     <use style="stroke:#000000;" x="120.017893" xlink:href="#m30373e1997" y="137.862921"/>
     <use style="stroke:#000000;" x="121.37628" xlink:href="#m30373e1997" y="138.626874"/>
     <use style="stroke:#000000;" x="122.734667" xlink:href="#m30373e1997" y="140.329694"/>
     <use style="stroke:#000000;" x="124.093054" xlink:href="#m30373e1997" y="147.980209"/>
     <use style="stroke:#000000;" x="125.451442" xlink:href="#m30373e1997" y="148.210253"/>
     <use style="stroke:#000000;" x="126.809829" xlink:href="#m30373e1997" y="148.591172"/>
     <use style="stroke:#000000;" x="128.168216" xlink:href="#m30373e1997" y="151.135201"/>
     <use style="stroke:#000000;" x="129.526603" xlink:href="#m30373e1997" y="154.493808"/>
     <use style="stroke:#000000;" x="130.88499" xlink:href="#m30373e1997" y="160.264245"/>
     <use style="stroke:#000000;" x="132.243378" xlink:href="#m30373e1997" y="160.875377"/>
     <use style="stroke:#000000;" x="133.601765" xlink:href="#m30373e1997" y="164.764059"/>
     <use style="stroke:#000000;" x="134.960152" xlink:href="#m30373e1997" y="165.51666"/>
     <use style="stroke:#000000;" x="136.318539" xlink:href="#m30373e1997" y="167.831376"/>
     <use style="stroke:#000000;" x="137.676927" xlink:href="#m30373e1997" y="168.93159"/>
     <use style="stroke:#000000;" x="139.035314" xlink:href="#m30373e1997" y="169.085146"/>
     <use style="stroke:#000000;" x="140.393701" xlink:href="#m30373e1997" y="169.878168"/>
     <use style="stroke:#000000;" x="141.752088" xlink:href="#m30373e1997" y="172.615653"/>
     <use style="stroke:#000000;" x="143.110475" xlink:href="#m30373e1997" y="172.845411"/>
     <use style="stroke:#000000;" x="144.468863" xlink:href="#m30373e1997" y="173.196309"/>
     <use style="stroke:#000000;" x="145.82725" xlink:href="#m30373e1997" y="173.889479"/>
     <use style="stroke:#000000;" x="147.185637" xlink:href="#m30373e1997" y="175.244802"/>
     <use style="stroke:#000000;" x="148.544024" xlink:href="#m30373e1997" y="178.277576"/>
     <use style="stroke:#000000;" x="149.902412" xlink:href="#m30373e1997" y="178.350193"/>
     <use style="stroke:#000000;" x="151.260799" xlink:href="#m30373e1997" y="178.749712"/>
     <use style="stroke:#000000;" x="152.619186" xlink:href="#m30373e1997" y="179.442322"/>
     <use style="stroke:#000000;" x="153.977573" xlink:href="#m30373e1997" y="179.488415"/>
     <use style="stroke:#000000;" x="155.33596" xlink:href="#m30373e1997" y="180.004416"/>
     <use style="stroke:#000000;" x="156.694348" xlink:href="#m30373e1997" y="180.358021"/>
     <use style="stroke:#000000;" x="158.052735" xlink:href="#m30373e1997" y="182.000469"/>
     <use style="stroke:#000000;" x="159.411122" xlink:href="#m30373e1997" y="182.410936"/>
     <use style="stroke:#000000;" x="160.769509" xlink:href="#m30373e1997" y="182.769187"/>
     <use style="stroke:#000000;" x="162.127897" xlink:href="#m30373e1997" y="183.501517"/>
     <use style="stroke:#000000;" x="163.486284" xlink:href="#m30373e1997" y="183.516244"/>
     <use style="stroke:#000000;" x="164.844671" xlink:href="#m30373e1997" y="183.917009"/>
     <use style="stroke:#000000;" x="166.203058" xlink:href="#m30373e1997" y="183.976751"/>
     <use style="stroke:#000000;" x="167.561445" xlink:href="#m30373e1997" y="184.184173"/>
     <use style="stroke:#000000;" x="168.919833" xlink:href="#m30373e1997" y="184.25722"/>
     <use style="stroke:#000000;" x="170.27822" xlink:href="#m30373e1997" y="184.457473"/>
     <use style="stroke:#000000;" x="171.636607" xlink:href="#m30373e1997" y="184.691582"/>
     <use style="stroke:#000000;" x="172.994994" xlink:href="#m30373e1997" y="184.755397"/>
     <use style="stroke:#000000;" x="174.353382" xlink:href="#m30373e1997" y="184.958469"/>
     <use style="stroke:#000000;" x="175.711769" xlink:href="#m30373e1997" y="186.069654"/>
     <use style="stroke:#000000;" x="177.070156" xlink:href="#m30373e1997" y="187.308285"/>
     <use style="stroke:#000000;" x="178.428543" xlink:href="#m30373e1997" y="188.364643"/>
     <use style="stroke:#000000;" x="179.78693" xlink:href="#m30373e1997" y="189.251329"/>
     <use style="stroke:#000000;" x="181.145318" xlink:href="#m30373e1997" y="189.26176"/>
     <use style="stroke:#000000;" x="182.503705" xlink:href="#m30373e1997" y="189.877375"/>
     <use style="stroke:#000000;" x="183.862092" xlink:href="#m30373e1997" y="190.160099"/>
     <use style="stroke:#000000;" x="185.220479" xlink:href="#m30373e1997" y="190.911853"/>
     <use style="stroke:#000000;" x="186.578866" xlink:href="#m30373e1997" y="191.8772"/>
     <use style="stroke:#000000;" x="187.937254" xlink:href="#m30373e1997" y="192.079376"/>
     <use style="stroke:#000000;" x="189.295641" xlink:href="#m30373e1997" y="192.897137"/>
     <use style="stroke:#000000;" x="190.654028" xlink:href="#m30373e1997" y="197.761549"/>
     <use style="stroke:#000000;" x="192.012415" xlink:href="#m30373e1997" y="200.815618"/>
     <use style="stroke:#000000;" x="193.370803" xlink:href="#m30373e1997" y="201.619801"/>
     <use style="stroke:#000000;" x="194.72919" xlink:href="#m30373e1997" y="201.800672"/>
     <use style="stroke:#000000;" x="196.087577" xlink:href="#m30373e1997" y="206.048425"/>
     <use style="stroke:#000000;" x="197.445964" xlink:href="#m30373e1997" y="206.443325"/>
     <use style="stroke:#000000;" x="198.804351" xlink:href="#m30373e1997" y="208.405241"/>
     <use style="stroke:#000000;" x="200.162739" xlink:href="#m30373e1997" y="210.721261"/>
     <use style="stroke:#000000;" x="201.521126" xlink:href="#m30373e1997" y="210.949101"/>
     <use style="stroke:#000000;" x="202.879513" xlink:href="#m30373e1997" y="211.334023"/>
     <use style="stroke:#000000;" x="204.2379" xlink:href="#m30373e1997" y="212.432413"/>
     <use style="stroke:#000000;" x="205.596288" xlink:href="#m30373e1997" y="215.856243"/>
     <use style="stroke:#000000;" x="206.954675" xlink:href="#m30373e1997" y="216.197907"/>
     <use style="stroke:#000000;" x="208.313062" xlink:href="#m30373e1997" y="216.307981"/>
     <use style="stroke:#000000;" x="209.671449" xlink:href="#m30373e1997" y="217.333933"/>
     <use style="stroke:#000000;" x="211.029836" xlink:href="#m30373e1997" y="221.522936"/>
     <use style="stroke:#000000;" x="212.388224" xlink:href="#m30373e1997" y="221.740423"/>
     <use style="stroke:#000000;" x="213.746611" xlink:href="#m30373e1997" y="222.144918"/>
     <use style="stroke:#000000;" x="215.104998" xlink:href="#m30373e1997" y="222.280816"/>
     <use style="stroke:#000000;" x="216.463385" xlink:href="#m30373e1997" y="222.290253"/>
     <use style="stroke:#000000;" x="217.821773" xlink:href="#m30373e1997" y="223.295153"/>
     <use style="stroke:#000000;" x="219.18016" xlink:href="#m30373e1997" y="225.173957"/>
     <use style="stroke:#000000;" x="220.538547" xlink:href="#m30373e1997" y="226.048898"/>
     <use style="stroke:#000000;" x="221.896934" xlink:href="#m30373e1997" y="227.412322"/>
     <use style="stroke:#000000;" x="223.255321" xlink:href="#m30373e1997" y="228.323496"/>
     <use style="stroke:#000000;" x="224.613709" xlink:href="#m30373e1997" y="230.9971"/>
     <use style="stroke:#000000;" x="225.972096" xlink:href="#m30373e1997" y="232.725683"/>
     <use style="stroke:#000000;" x="227.330483" xlink:href="#m30373e1997" y="233.154305"/>
     <use style="stroke:#000000;" x="228.68887" xlink:href="#m30373e1997" y="233.740157"/>
     <use style="stroke:#000000;" x="230.047258" xlink:href="#m30373e1997" y="239.286771"/>
     <use style="stroke:#000000;" x="231.405645" xlink:href="#m30373e1997" y="239.822764"/>
     <use style="stroke:#000000;" x="232.764032" xlink:href="#m30373e1997" y="240.493449"/>
     <use style="stroke:#000000;" x="234.122419" xlink:href="#m30373e1997" y="241.828673"/>
     <use style="stroke:#000000;" x="235.480806" xlink:href="#m30373e1997" y="243.992808"/>
     <use style="stroke:#000000;" x="236.839194" xlink:href="#m30373e1997" y="244.61981"/>
     <use style="stroke:#000000;" x="238.197581" xlink:href="#m30373e1997" y="244.875076"/>
     <use style="stroke:#000000;" x="239.555968" xlink:href="#m30373e1997" y="245.488101"/>
     <use style="stroke:#000000;" x="240.914355" xlink:href="#m30373e1997" y="245.957909"/>
     <use style="stroke:#000000;" x="242.272742" xlink:href="#m30373e1997" y="249.151366"/>
     <use style="stroke:#000000;" x="243.63113" xlink:href="#m30373e1997" y="249.942959"/>
     <use style="stroke:#000000;" x="244.989517" xlink:href="#m30373e1997" y="251.366168"/>
     <use style="stroke:#000000;" x="246.347904" xlink:href="#m30373e1997" y="251.810326"/>
     <use style="stroke:#000000;" x="247.706291" xlink:href="#m30373e1997" y="252.558096"/>
     <use style="stroke:#000000;" x="249.064679" xlink:href="#m30373e1997" y="253.233721"/>
     <use style="stroke:#000000;" x="250.423066" xlink:href="#m30373e1997" y="254.904446"/>
     <use style="stroke:#000000;" x="251.781453" xlink:href="#m30373e1997" y="255.64587"/>
     <use style="stroke:#000000;" x="253.13984" xlink:href="#m30373e1997" y="256.535016"/>
     <use style="stroke:#000000;" x="254.498227" xlink:href="#m30373e1997" y="258.228623"/>
     <use style="stroke:#000000;" x="255.856615" xlink:href="#m30373e1997" y="258.481759"/>
     <use style="stroke:#000000;" x="257.215002" xlink:href="#m30373e1997" y="259.173936"/>
     <use style="stroke:#000000;" x="258.573389" xlink:href="#m30373e1997" y="260.457479"/>
     <use style="stroke:#000000;" x="259.931776" xlink:href="#m30373e1997" y="263.88687"/>
     <use style="stroke:#000000;" x="261.290164" xlink:href="#m30373e1997" y="263.901247"/>
     <use style="stroke:#000000;" x="262.648551" xlink:href="#m30373e1997" y="264.821485"/>
     <use style="stroke:#000000;" x="264.006938" xlink:href="#m30373e1997" y="266.674763"/>
     <use style="stroke:#000000;" x="265.365325" xlink:href="#m30373e1997" y="268.263257"/>
     <use style="stroke:#000000;" x="266.723712" xlink:href="#m30373e1997" y="273.380543"/>
     <use style="stroke:#000000;" x="268.0821" xlink:href="#m30373e1997" y="275.190076"/>
     <use style="stroke:#000000;" x="269.440487" xlink:href="#m30373e1997" y="275.191994"/>
     <use style="stroke:#000000;" x="270.798874" xlink:href="#m30373e1997" y="275.565905"/>
     <use style="stroke:#000000;" x="272.157261" xlink:href="#m30373e1997" y="275.809534"/>
     <use style="stroke:#000000;" x="273.515649" xlink:href="#m30373e1997" y="278.00499"/>
     <use style="stroke:#000000;" x="274.874036" xlink:href="#m30373e1997" y="280.756994"/>
     <use style="stroke:#000000;" x="276.232423" xlink:href="#m30373e1997" y="294.135665"/>
    </g>
   </g>
   <g id="PathCollection_2">
    <defs>
     <path d="M 0 3 
C 0.795609 3 1.55874 2.683901 2.12132 2.12132 
C 2.683901 1.55874 3 0.795609 3 0 
C 3 -0.795609 2.683901 -1.55874 2.12132 -2.12132 
C 1.55874 -2.683901 0.795609 -3 0 -3 
C -0.795609 -3 -1.55874 -2.683901 -2.12132 -2.12132 
C -2.683901 -1.55874 -3 -0.795609 -3 0 
C -3 0.795609 -2.683901 1.55874 -2.12132 2.12132 
C -1.55874 2.683901 -0.795609 3 0 3 
z
" id="m139ae94d07" style="stroke:#ff0000;"/>
    </defs>
    <g clip-path="url(#pa5f3dac09a)">
     <use style="fill:#ff0000;stroke:#ff0000;" x="277.59081" xlink:href="#m139ae94d07" y="250.51147"/>
     <use style="fill:#ff0000;stroke:#ff0000;" x="278.949197" xlink:href="#m139ae94d07" y="218.772515"/>
     <use style="fill:#ff0000;stroke:#ff0000;" x="280.307585" xlink:href="#m139ae94d07" y="280.657414"/>
     <use style="fill:#ff0000;stroke:#ff0000;" x="281.665972" xlink:href="#m139ae94d07" y="229.052748"/>
     <use style="fill:#ff0000;stroke:#ff0000;" x="283.024359" xlink:href="#m139ae94d07" y="230.89933"/>
     <use style="fill:#ff0000;stroke:#ff0000;" x="284.382746" xlink:href="#m139ae94d07" y="183.783558"/>
     <use style="fill:#ff0000;stroke:#ff0000;" x="285.741134" xlink:href="#m139ae94d07" y="199.654634"/>
     <use style="fill:#ff0000;stroke:#ff0000;" x="287.099521" xlink:href="#m139ae94d07" y="256.637278"/>
     <use style="fill:#ff0000;stroke:#ff0000;" x="288.457908" xlink:href="#m139ae94d07" y="278.467756"/>
     <use style="fill:#ff0000;stroke:#ff0000;" x="289.816295" xlink:href="#m139ae94d07" y="216.783997"/>
     <use style="fill:#ff0000;stroke:#ff0000;" x="291.174682" xlink:href="#m139ae94d07" y="257.415874"/>
     <use style="fill:#ff0000;stroke:#ff0000;" x="292.53307" xlink:href="#m139ae94d07" y="267.677508"/>
     <use style="fill:#ff0000;stroke:#ff0000;" x="293.891457" xlink:href="#m139ae94d07" y="169.789151"/>
     <use style="fill:#ff0000;stroke:#ff0000;" x="295.249844" xlink:href="#m139ae94d07" y="200.736328"/>
     <use style="fill:#ff0000;stroke:#ff0000;" x="296.608231" xlink:href="#m139ae94d07" y="260.511942"/>
     <use style="fill:#ff0000;stroke:#ff0000;" x="297.966618" xlink:href="#m139ae94d07" y="283.517948"/>
     <use style="fill:#ff0000;stroke:#ff0000;" x="299.325006" xlink:href="#m139ae94d07" y="283.517948"/>
     <use style="fill:#ff0000;stroke:#ff0000;" x="300.683393" xlink:href="#m139ae94d07" y="283.517948"/>
     <use style="fill:#ff0000;stroke:#ff0000;" x="302.04178" xlink:href="#m139ae94d07" y="189.852706"/>
     <use style="fill:#ff0000;stroke:#ff0000;" x="303.400167" xlink:href="#m139ae94d07" y="264.700858"/>
     <use style="fill:#ff0000;stroke:#ff0000;" x="304.758555" xlink:href="#m139ae94d07" y="280.288699"/>
     <use style="fill:#ff0000;stroke:#ff0000;" x="306.116942" xlink:href="#m139ae94d07" y="248.536655"/>
     <use style="fill:#ff0000;stroke:#ff0000;" x="307.475329" xlink:href="#m139ae94d07" y="283.517948"/>
     <use style="fill:#ff0000;stroke:#ff0000;" x="308.833716" xlink:href="#m139ae94d07" y="251.460545"/>
     <use style="fill:#ff0000;stroke:#ff0000;" x="310.192103" xlink:href="#m139ae94d07" y="247.699438"/>
     <use style="fill:#ff0000;stroke:#ff0000;" x="311.550491" xlink:href="#m139ae94d07" y="262.667454"/>
     <use style="fill:#ff0000;stroke:#ff0000;" x="312.908878" xlink:href="#m139ae94d07" y="220.109153"/>
     <use style="fill:#ff0000;stroke:#ff0000;" x="314.267265" xlink:href="#m139ae94d07" y="181.40658"/>
     <use style="fill:#ff0000;stroke:#ff0000;" x="315.625652" xlink:href="#m139ae94d07" y="263.344662"/>
     <use style="fill:#ff0000;stroke:#ff0000;" x="316.98404" xlink:href="#m139ae94d07" y="283.517948"/>
     <use style="fill:#ff0000;stroke:#ff0000;" x="318.342427" xlink:href="#m139ae94d07" y="203.942673"/>
     <use style="fill:#ff0000;stroke:#ff0000;" x="319.700814" xlink:href="#m139ae94d07" y="241.692723"/>
     <use style="fill:#ff0000;stroke:#ff0000;" x="321.059201" xlink:href="#m139ae94d07" y="271.810878"/>
     <use style="fill:#ff0000;stroke:#ff0000;" x="322.417588" xlink:href="#m139ae94d07" y="238.354518"/>
     <use style="fill:#ff0000;stroke:#ff0000;" x="323.775976" xlink:href="#m139ae94d07" y="283.517948"/>
     <use style="fill:#ff0000;stroke:#ff0000;" x="325.134363" xlink:href="#m139ae94d07" y="232.325636"/>
     <use style="fill:#ff0000;stroke:#ff0000;" x="326.49275" xlink:href="#m139ae94d07" y="272.095601"/>
     <use style="fill:#ff0000;stroke:#ff0000;" x="327.851137" xlink:href="#m139ae94d07" y="286.75088"/>
     <use style="fill:#ff0000;stroke:#ff0000;" x="329.209525" xlink:href="#m139ae94d07" y="250.766937"/>
     <use style="fill:#ff0000;stroke:#ff0000;" x="330.567912" xlink:href="#m139ae94d07" y="227.324604"/>
     <use style="fill:#ff0000;stroke:#ff0000;" x="331.926299" xlink:href="#m139ae94d07" y="224.195219"/>
     <use style="fill:#ff0000;stroke:#ff0000;" x="333.284686" xlink:href="#m139ae94d07" y="283.517948"/>
     <use style="fill:#ff0000;stroke:#ff0000;" x="334.643073" xlink:href="#m139ae94d07" y="283.517948"/>
     <use style="fill:#ff0000;stroke:#ff0000;" x="336.001461" xlink:href="#m139ae94d07" y="278.939625"/>
     <use style="fill:#ff0000;stroke:#ff0000;" x="337.359848" xlink:href="#m139ae94d07" y="277.888749"/>
     <use style="fill:#ff0000;stroke:#ff0000;" x="338.718235" xlink:href="#m139ae94d07" y="277.904321"/>
     <use style="fill:#ff0000;stroke:#ff0000;" x="340.076622" xlink:href="#m139ae94d07" y="274.622725"/>
     <use style="fill:#ff0000;stroke:#ff0000;" x="341.43501" xlink:href="#m139ae94d07" y="277.904321"/>
     <use style="fill:#ff0000;stroke:#ff0000;" x="342.793397" xlink:href="#m139ae94d07" y="215.397558"/>
     <use style="fill:#ff0000;stroke:#ff0000;" x="344.151784" xlink:href="#m139ae94d07" y="255.720965"/>
     <use style="fill:#ff0000;stroke:#ff0000;" x="345.510171" xlink:href="#m139ae94d07" y="277.904321"/>
     <use style="fill:#ff0000;stroke:#ff0000;" x="346.868558" xlink:href="#m139ae94d07" y="275.706271"/>
     <use style="fill:#ff0000;stroke:#ff0000;" x="348.226946" xlink:href="#m139ae94d07" y="248.167608"/>
     <use style="fill:#ff0000;stroke:#ff0000;" x="349.585333" xlink:href="#m139ae94d07" y="178.811967"/>
     <use style="fill:#ff0000;stroke:#ff0000;" x="350.94372" xlink:href="#m139ae94d07" y="175.338959"/>
     <use style="fill:#ff0000;stroke:#ff0000;" x="352.302107" xlink:href="#m139ae94d07" y="244.433947"/>
     <use style="fill:#ff0000;stroke:#ff0000;" x="353.660494" xlink:href="#m139ae94d07" y="283.517948"/>
     <use style="fill:#ff0000;stroke:#ff0000;" x="355.018882" xlink:href="#m139ae94d07" y="279.517314"/>
     <use style="fill:#ff0000;stroke:#ff0000;" x="356.377269" xlink:href="#m139ae94d07" y="214.440394"/>
     <use style="fill:#ff0000;stroke:#ff0000;" x="357.735656" xlink:href="#m139ae94d07" y="283.517948"/>
     <use style="fill:#ff0000;stroke:#ff0000;" x="359.094043" xlink:href="#m139ae94d07" y="243.095186"/>
     <use style="fill:#ff0000;stroke:#ff0000;" x="360.452431" xlink:href="#m139ae94d07" y="254.841789"/>
     <use style="fill:#ff0000;stroke:#ff0000;" x="361.810818" xlink:href="#m139ae94d07" y="283.517948"/>
     <use style="fill:#ff0000;stroke:#ff0000;" x="363.169205" xlink:href="#m139ae94d07" y="280.493925"/>
     <use style="fill:#ff0000;stroke:#ff0000;" x="364.527592" xlink:href="#m139ae94d07" y="211.49885"/>
     <use style="fill:#ff0000;stroke:#ff0000;" x="365.885979" xlink:href="#m139ae94d07" y="238.138278"/>
     <use style="fill:#ff0000;stroke:#ff0000;" x="367.244367" xlink:href="#m139ae94d07" y="168.879577"/>
     <use style="fill:#ff0000;stroke:#ff0000;" x="368.602754" xlink:href="#m139ae94d07" y="252.94432"/>
     <use style="fill:#ff0000;stroke:#ff0000;" x="369.961141" xlink:href="#m139ae94d07" y="266.669366"/>
     <use style="fill:#ff0000;stroke:#ff0000;" x="371.319528" xlink:href="#m139ae94d07" y="283.517948"/>
     <use style="fill:#ff0000;stroke:#ff0000;" x="372.677916" xlink:href="#m139ae94d07" y="215.656613"/>
     <use style="fill:#ff0000;stroke:#ff0000;" x="374.036303" xlink:href="#m139ae94d07" y="283.517948"/>
     <use style="fill:#ff0000;stroke:#ff0000;" x="375.39469" xlink:href="#m139ae94d07" y="164.9143"/>
     <use style="fill:#ff0000;stroke:#ff0000;" x="376.753077" xlink:href="#m139ae94d07" y="279.414818"/>
     <use style="fill:#ff0000;stroke:#ff0000;" x="378.111464" xlink:href="#m139ae94d07" y="251.236637"/>
     <use style="fill:#ff0000;stroke:#ff0000;" x="379.469852" xlink:href="#m139ae94d07" y="280.819459"/>
     <use style="fill:#ff0000;stroke:#ff0000;" x="380.828239" xlink:href="#m139ae94d07" y="278.010396"/>
     <use style="fill:#ff0000;stroke:#ff0000;" x="382.186626" xlink:href="#m139ae94d07" y="209.029037"/>
     <use style="fill:#ff0000;stroke:#ff0000;" x="383.545013" xlink:href="#m139ae94d07" y="237.51497"/>
     <use style="fill:#ff0000;stroke:#ff0000;" x="384.903401" xlink:href="#m139ae94d07" y="211.730389"/>
     <use style="fill:#ff0000;stroke:#ff0000;" x="386.261788" xlink:href="#m139ae94d07" y="240.411429"/>
     <use style="fill:#ff0000;stroke:#ff0000;" x="387.620175" xlink:href="#m139ae94d07" y="229.8626"/>
     <use style="fill:#ff0000;stroke:#ff0000;" x="388.978562" xlink:href="#m139ae94d07" y="295.488"/>
     <use style="fill:#ff0000;stroke:#ff0000;" x="390.336949" xlink:href="#m139ae94d07" y="246.502357"/>
     <use style="fill:#ff0000;stroke:#ff0000;" x="391.695337" xlink:href="#m139ae94d07" y="170.266821"/>
     <use style="fill:#ff0000;stroke:#ff0000;" x="393.053724" xlink:href="#m139ae94d07" y="180.511413"/>
     <use style="fill:#ff0000;stroke:#ff0000;" x="394.412111" xlink:href="#m139ae94d07" y="246.895751"/>
     <use style="fill:#ff0000;stroke:#ff0000;" x="395.770498" xlink:href="#m139ae94d07" y="226.048748"/>
     <use style="fill:#ff0000;stroke:#ff0000;" x="397.128886" xlink:href="#m139ae94d07" y="253.377236"/>
     <use style="fill:#ff0000;stroke:#ff0000;" x="398.487273" xlink:href="#m139ae94d07" y="247.304405"/>
    </g>
   </g>
   <g id="matplotlib.axis_1">
    <g id="xtick_1">
     <g id="line2d_1">
      <defs>
       <path d="M 0 0 
L 0 3.5 
" id="m6d8119072a" style="stroke:#000000;stroke-width:0.8;"/>
      </defs>
      <g>
       <use style="stroke:#000000;stroke-width:0.8;" x="72.47434" xlink:href="#m6d8119072a" y="307.584"/>
      </g>
     </g>
     <g id="text_1">
      <!-- 0 -->
      <g transform="translate(69.29309 322.182437)scale(0.1 -0.1)">
       <defs>
        <path d="M 2034 4250 
Q 1547 4250 1301 3770 
Q 1056 3291 1056 2328 
Q 1056 1369 1301 889 
Q 1547 409 2034 409 
Q 2525 409 2770 889 
Q 3016 1369 3016 2328 
Q 3016 3291 2770 3770 
Q 2525 4250 2034 4250 
z
M 2034 4750 
Q 2819 4750 3233 4129 
Q 3647 3509 3647 2328 
Q 3647 1150 3233 529 
Q 2819 -91 2034 -91 
Q 1250 -91 836 529 
Q 422 1150 422 2328 
Q 422 3509 836 4129 
Q 1250 4750 2034 4750 
z
" id="DejaVuSans-30" transform="scale(0.015625)"/>
       </defs>
       <use xlink:href="#DejaVuSans-30"/>
      </g>
     </g>
    </g>
    <g id="xtick_2">
     <g id="line2d_2">
      <g>
       <use style="stroke:#000000;stroke-width:0.8;" x="140.393701" xlink:href="#m6d8119072a" y="307.584"/>
      </g>
     </g>
     <g id="text_2">
      <!-- 50 -->
      <g transform="translate(134.031201 322.182437)scale(0.1 -0.1)">
       <defs>
        <path d="M 691 4666 
L 3169 4666 
L 3169 4134 
L 1269 4134 
L 1269 2991 
Q 1406 3038 1543 3061 
Q 1681 3084 1819 3084 
Q 2600 3084 3056 2656 
Q 3513 2228 3513 1497 
Q 3513 744 3044 326 
Q 2575 -91 1722 -91 
Q 1428 -91 1123 -41 
Q 819 9 494 109 
L 494 744 
Q 775 591 1075 516 
Q 1375 441 1709 441 
Q 2250 441 2565 725 
Q 2881 1009 2881 1497 
Q 2881 1984 2565 2268 
Q 2250 2553 1709 2553 
Q 1456 2553 1204 2497 
Q 953 2441 691 2322 
L 691 4666 
z
" id="DejaVuSans-35" transform="scale(0.015625)"/>
       </defs>
       <use xlink:href="#DejaVuSans-35"/>
       <use x="63.623047" xlink:href="#DejaVuSans-30"/>
      </g>
     </g>
    </g>
    <g id="xtick_3">
     <g id="line2d_3">
      <g>
       <use style="stroke:#000000;stroke-width:0.8;" x="208.313062" xlink:href="#m6d8119072a" y="307.584"/>
      </g>
     </g>
     <g id="text_3">
      <!-- 100 -->
      <g transform="translate(198.769312 322.182437)scale(0.1 -0.1)">
       <defs>
        <path d="M 794 531 
L 1825 531 
L 1825 4091 
L 703 3866 
L 703 4441 
L 1819 4666 
L 2450 4666 
L 2450 531 
L 3481 531 
L 3481 0 
L 794 0 
L 794 531 
z
" id="DejaVuSans-31" transform="scale(0.015625)"/>
       </defs>
       <use xlink:href="#DejaVuSans-31"/>
       <use x="63.623047" xlink:href="#DejaVuSans-30"/>
       <use x="127.246094" xlink:href="#DejaVuSans-30"/>
      </g>
     </g>
    </g>
    <g id="xtick_4">
     <g id="line2d_4">
      <g>
       <use style="stroke:#000000;stroke-width:0.8;" x="276.232423" xlink:href="#m6d8119072a" y="307.584"/>
      </g>
     </g>
     <g id="text_4">
      <!-- 150 -->
      <g transform="translate(266.688673 322.182437)scale(0.1 -0.1)">
       <use xlink:href="#DejaVuSans-31"/>
       <use x="63.623047" xlink:href="#DejaVuSans-35"/>
       <use x="127.246094" xlink:href="#DejaVuSans-30"/>
      </g>
     </g>
    </g>
    <g id="xtick_5">
     <g id="line2d_5">
      <g>
       <use style="stroke:#000000;stroke-width:0.8;" x="344.151784" xlink:href="#m6d8119072a" y="307.584"/>
      </g>
     </g>
     <g id="text_5">
      <!-- 200 -->
      <g transform="translate(334.608034 322.182437)scale(0.1 -0.1)">
       <defs>
        <path d="M 1228 531 
L 3431 531 
L 3431 0 
L 469 0 
L 469 531 
Q 828 903 1448 1529 
Q 2069 2156 2228 2338 
Q 2531 2678 2651 2914 
Q 2772 3150 2772 3378 
Q 2772 3750 2511 3984 
Q 2250 4219 1831 4219 
Q 1534 4219 1204 4116 
Q 875 4013 500 3803 
L 500 4441 
Q 881 4594 1212 4672 
Q 1544 4750 1819 4750 
Q 2544 4750 2975 4387 
Q 3406 4025 3406 3419 
Q 3406 3131 3298 2873 
Q 3191 2616 2906 2266 
Q 2828 2175 2409 1742 
Q 1991 1309 1228 531 
z
" id="DejaVuSans-32" transform="scale(0.015625)"/>
       </defs>
       <use xlink:href="#DejaVuSans-32"/>
       <use x="63.623047" xlink:href="#DejaVuSans-30"/>
       <use x="127.246094" xlink:href="#DejaVuSans-30"/>
      </g>
     </g>
    </g>
    <g id="xtick_6">
     <g id="line2d_6">
      <g>
       <use style="stroke:#000000;stroke-width:0.8;" x="412.071145" xlink:href="#m6d8119072a" y="307.584"/>
      </g>
     </g>
     <g id="text_6">
      <!-- 250 -->
      <g transform="translate(402.527395 322.182437)scale(0.1 -0.1)">
       <use xlink:href="#DejaVuSans-32"/>
       <use x="63.623047" xlink:href="#DejaVuSans-35"/>
       <use x="127.246094" xlink:href="#DejaVuSans-30"/>
      </g>
     </g>
    </g>
    <g id="text_7">
     <!-- Error between target and SE shape -->
     <g transform="translate(148.375625 335.860562)scale(0.1 -0.1)">
      <defs>
       <path d="M 628 4666 
L 3578 4666 
L 3578 4134 
L 1259 4134 
L 1259 2753 
L 3481 2753 
L 3481 2222 
L 1259 2222 
L 1259 531 
L 3634 531 
L 3634 0 
L 628 0 
L 628 4666 
z
" id="DejaVuSans-45" transform="scale(0.015625)"/>
       <path d="M 2631 2963 
Q 2534 3019 2420 3045 
Q 2306 3072 2169 3072 
Q 1681 3072 1420 2755 
Q 1159 2438 1159 1844 
L 1159 0 
L 581 0 
L 581 3500 
L 1159 3500 
L 1159 2956 
Q 1341 3275 1631 3429 
Q 1922 3584 2338 3584 
Q 2397 3584 2469 3576 
Q 2541 3569 2628 3553 
L 2631 2963 
z
" id="DejaVuSans-72" transform="scale(0.015625)"/>
       <path d="M 1959 3097 
Q 1497 3097 1228 2736 
Q 959 2375 959 1747 
Q 959 1119 1226 758 
Q 1494 397 1959 397 
Q 2419 397 2687 759 
Q 2956 1122 2956 1747 
Q 2956 2369 2687 2733 
Q 2419 3097 1959 3097 
z
M 1959 3584 
Q 2709 3584 3137 3096 
Q 3566 2609 3566 1747 
Q 3566 888 3137 398 
Q 2709 -91 1959 -91 
Q 1206 -91 779 398 
Q 353 888 353 1747 
Q 353 2609 779 3096 
Q 1206 3584 1959 3584 
z
" id="DejaVuSans-6f" transform="scale(0.015625)"/>
       <path id="DejaVuSans-20" transform="scale(0.015625)"/>
       <path d="M 3116 1747 
Q 3116 2381 2855 2742 
Q 2594 3103 2138 3103 
Q 1681 3103 1420 2742 
Q 1159 2381 1159 1747 
Q 1159 1113 1420 752 
Q 1681 391 2138 391 
Q 2594 391 2855 752 
Q 3116 1113 3116 1747 
z
M 1159 2969 
Q 1341 3281 1617 3432 
Q 1894 3584 2278 3584 
Q 2916 3584 3314 3078 
Q 3713 2572 3713 1747 
Q 3713 922 3314 415 
Q 2916 -91 2278 -91 
Q 1894 -91 1617 61 
Q 1341 213 1159 525 
L 1159 0 
L 581 0 
L 581 4863 
L 1159 4863 
L 1159 2969 
z
" id="DejaVuSans-62" transform="scale(0.015625)"/>
       <path d="M 3597 1894 
L 3597 1613 
L 953 1613 
Q 991 1019 1311 708 
Q 1631 397 2203 397 
Q 2534 397 2845 478 
Q 3156 559 3463 722 
L 3463 178 
Q 3153 47 2828 -22 
Q 2503 -91 2169 -91 
Q 1331 -91 842 396 
Q 353 884 353 1716 
Q 353 2575 817 3079 
Q 1281 3584 2069 3584 
Q 2775 3584 3186 3129 
Q 3597 2675 3597 1894 
z
M 3022 2063 
Q 3016 2534 2758 2815 
Q 2500 3097 2075 3097 
Q 1594 3097 1305 2825 
Q 1016 2553 972 2059 
L 3022 2063 
z
" id="DejaVuSans-65" transform="scale(0.015625)"/>
       <path d="M 1172 4494 
L 1172 3500 
L 2356 3500 
L 2356 3053 
L 1172 3053 
L 1172 1153 
Q 1172 725 1289 603 
Q 1406 481 1766 481 
L 2356 481 
L 2356 0 
L 1766 0 
Q 1100 0 847 248 
Q 594 497 594 1153 
L 594 3053 
L 172 3053 
L 172 3500 
L 594 3500 
L 594 4494 
L 1172 4494 
z
" id="DejaVuSans-74" transform="scale(0.015625)"/>
       <path d="M 269 3500 
L 844 3500 
L 1563 769 
L 2278 3500 
L 2956 3500 
L 3675 769 
L 4391 3500 
L 4966 3500 
L 4050 0 
L 3372 0 
L 2619 2869 
L 1863 0 
L 1184 0 
L 269 3500 
z
" id="DejaVuSans-77" transform="scale(0.015625)"/>
       <path d="M 3513 2113 
L 3513 0 
L 2938 0 
L 2938 2094 
Q 2938 2591 2744 2837 
Q 2550 3084 2163 3084 
Q 1697 3084 1428 2787 
Q 1159 2491 1159 1978 
L 1159 0 
L 581 0 
L 581 3500 
L 1159 3500 
L 1159 2956 
Q 1366 3272 1645 3428 
Q 1925 3584 2291 3584 
Q 2894 3584 3203 3211 
Q 3513 2838 3513 2113 
z
" id="DejaVuSans-6e" transform="scale(0.015625)"/>
       <path d="M 2194 1759 
Q 1497 1759 1228 1600 
Q 959 1441 959 1056 
Q 959 750 1161 570 
Q 1363 391 1709 391 
Q 2188 391 2477 730 
Q 2766 1069 2766 1631 
L 2766 1759 
L 2194 1759 
z
M 3341 1997 
L 3341 0 
L 2766 0 
L 2766 531 
Q 2569 213 2275 61 
Q 1981 -91 1556 -91 
Q 1019 -91 701 211 
Q 384 513 384 1019 
Q 384 1609 779 1909 
Q 1175 2209 1959 2209 
L 2766 2209 
L 2766 2266 
Q 2766 2663 2505 2880 
Q 2244 3097 1772 3097 
Q 1472 3097 1187 3025 
Q 903 2953 641 2809 
L 641 3341 
Q 956 3463 1253 3523 
Q 1550 3584 1831 3584 
Q 2591 3584 2966 3190 
Q 3341 2797 3341 1997 
z
" id="DejaVuSans-61" transform="scale(0.015625)"/>
       <path d="M 2906 1791 
Q 2906 2416 2648 2759 
Q 2391 3103 1925 3103 
Q 1463 3103 1205 2759 
Q 947 2416 947 1791 
Q 947 1169 1205 825 
Q 1463 481 1925 481 
Q 2391 481 2648 825 
Q 2906 1169 2906 1791 
z
M 3481 434 
Q 3481 -459 3084 -895 
Q 2688 -1331 1869 -1331 
Q 1566 -1331 1297 -1286 
Q 1028 -1241 775 -1147 
L 775 -588 
Q 1028 -725 1275 -790 
Q 1522 -856 1778 -856 
Q 2344 -856 2625 -561 
Q 2906 -266 2906 331 
L 2906 616 
Q 2728 306 2450 153 
Q 2172 0 1784 0 
Q 1141 0 747 490 
Q 353 981 353 1791 
Q 353 2603 747 3093 
Q 1141 3584 1784 3584 
Q 2172 3584 2450 3431 
Q 2728 3278 2906 2969 
L 2906 3500 
L 3481 3500 
L 3481 434 
z
" id="DejaVuSans-67" transform="scale(0.015625)"/>
       <path d="M 2906 2969 
L 2906 4863 
L 3481 4863 
L 3481 0 
L 2906 0 
L 2906 525 
Q 2725 213 2448 61 
Q 2172 -91 1784 -91 
Q 1150 -91 751 415 
Q 353 922 353 1747 
Q 353 2572 751 3078 
Q 1150 3584 1784 3584 
Q 2172 3584 2448 3432 
Q 2725 3281 2906 2969 
z
M 947 1747 
Q 947 1113 1208 752 
Q 1469 391 1925 391 
Q 2381 391 2643 752 
Q 2906 1113 2906 1747 
Q 2906 2381 2643 2742 
Q 2381 3103 1925 3103 
Q 1469 3103 1208 2742 
Q 947 2381 947 1747 
z
" id="DejaVuSans-64" transform="scale(0.015625)"/>
       <path d="M 3425 4513 
L 3425 3897 
Q 3066 4069 2747 4153 
Q 2428 4238 2131 4238 
Q 1616 4238 1336 4038 
Q 1056 3838 1056 3469 
Q 1056 3159 1242 3001 
Q 1428 2844 1947 2747 
L 2328 2669 
Q 3034 2534 3370 2195 
Q 3706 1856 3706 1288 
Q 3706 609 3251 259 
Q 2797 -91 1919 -91 
Q 1588 -91 1214 -16 
Q 841 59 441 206 
L 441 856 
Q 825 641 1194 531 
Q 1563 422 1919 422 
Q 2459 422 2753 634 
Q 3047 847 3047 1241 
Q 3047 1584 2836 1778 
Q 2625 1972 2144 2069 
L 1759 2144 
Q 1053 2284 737 2584 
Q 422 2884 422 3419 
Q 422 4038 858 4394 
Q 1294 4750 2059 4750 
Q 2388 4750 2728 4690 
Q 3069 4631 3425 4513 
z
" id="DejaVuSans-53" transform="scale(0.015625)"/>
       <path d="M 2834 3397 
L 2834 2853 
Q 2591 2978 2328 3040 
Q 2066 3103 1784 3103 
Q 1356 3103 1142 2972 
Q 928 2841 928 2578 
Q 928 2378 1081 2264 
Q 1234 2150 1697 2047 
L 1894 2003 
Q 2506 1872 2764 1633 
Q 3022 1394 3022 966 
Q 3022 478 2636 193 
Q 2250 -91 1575 -91 
Q 1294 -91 989 -36 
Q 684 19 347 128 
L 347 722 
Q 666 556 975 473 
Q 1284 391 1588 391 
Q 1994 391 2212 530 
Q 2431 669 2431 922 
Q 2431 1156 2273 1281 
Q 2116 1406 1581 1522 
L 1381 1569 
Q 847 1681 609 1914 
Q 372 2147 372 2553 
Q 372 3047 722 3315 
Q 1072 3584 1716 3584 
Q 2034 3584 2315 3537 
Q 2597 3491 2834 3397 
z
" id="DejaVuSans-73" transform="scale(0.015625)"/>
       <path d="M 3513 2113 
L 3513 0 
L 2938 0 
L 2938 2094 
Q 2938 2591 2744 2837 
Q 2550 3084 2163 3084 
Q 1697 3084 1428 2787 
Q 1159 2491 1159 1978 
L 1159 0 
L 581 0 
L 581 4863 
L 1159 4863 
L 1159 2956 
Q 1366 3272 1645 3428 
Q 1925 3584 2291 3584 
Q 2894 3584 3203 3211 
Q 3513 2838 3513 2113 
z
" id="DejaVuSans-68" transform="scale(0.015625)"/>
       <path d="M 1159 525 
L 1159 -1331 
L 581 -1331 
L 581 3500 
L 1159 3500 
L 1159 2969 
Q 1341 3281 1617 3432 
Q 1894 3584 2278 3584 
Q 2916 3584 3314 3078 
Q 3713 2572 3713 1747 
Q 3713 922 3314 415 
Q 2916 -91 2278 -91 
Q 1894 -91 1617 61 
Q 1341 213 1159 525 
z
M 3116 1747 
Q 3116 2381 2855 2742 
Q 2594 3103 2138 3103 
Q 1681 3103 1420 2742 
Q 1159 2381 1159 1747 
Q 1159 1113 1420 752 
Q 1681 391 2138 391 
Q 2594 391 2855 752 
Q 3116 1113 3116 1747 
z
" id="DejaVuSans-70" transform="scale(0.015625)"/>
      </defs>
      <use xlink:href="#DejaVuSans-45"/>
      <use x="63.183594" xlink:href="#DejaVuSans-72"/>
      <use x="102.546875" xlink:href="#DejaVuSans-72"/>
      <use x="141.410156" xlink:href="#DejaVuSans-6f"/>
      <use x="202.591797" xlink:href="#DejaVuSans-72"/>
      <use x="243.705078" xlink:href="#DejaVuSans-20"/>
      <use x="275.492188" xlink:href="#DejaVuSans-62"/>
      <use x="338.96875" xlink:href="#DejaVuSans-65"/>
      <use x="400.492188" xlink:href="#DejaVuSans-74"/>
      <use x="439.701172" xlink:href="#DejaVuSans-77"/>
      <use x="521.488281" xlink:href="#DejaVuSans-65"/>
      <use x="583.011719" xlink:href="#DejaVuSans-65"/>
      <use x="644.535156" xlink:href="#DejaVuSans-6e"/>
      <use x="707.914062" xlink:href="#DejaVuSans-20"/>
      <use x="739.701172" xlink:href="#DejaVuSans-74"/>
      <use x="778.910156" xlink:href="#DejaVuSans-61"/>
      <use x="840.189453" xlink:href="#DejaVuSans-72"/>
      <use x="879.552734" xlink:href="#DejaVuSans-67"/>
      <use x="943.029297" xlink:href="#DejaVuSans-65"/>
      <use x="1004.552734" xlink:href="#DejaVuSans-74"/>
      <use x="1043.761719" xlink:href="#DejaVuSans-20"/>
      <use x="1075.548828" xlink:href="#DejaVuSans-61"/>
      <use x="1136.828125" xlink:href="#DejaVuSans-6e"/>
      <use x="1200.207031" xlink:href="#DejaVuSans-64"/>
      <use x="1263.683594" xlink:href="#DejaVuSans-20"/>
      <use x="1295.470703" xlink:href="#DejaVuSans-53"/>
      <use x="1358.947266" xlink:href="#DejaVuSans-45"/>
      <use x="1422.130859" xlink:href="#DejaVuSans-20"/>
      <use x="1453.917969" xlink:href="#DejaVuSans-73"/>
      <use x="1506.017578" xlink:href="#DejaVuSans-68"/>
      <use x="1569.396484" xlink:href="#DejaVuSans-61"/>
      <use x="1630.675781" xlink:href="#DejaVuSans-70"/>
      <use x="1694.152344" xlink:href="#DejaVuSans-65"/>
     </g>
    </g>
   </g>
   <g id="matplotlib.axis_2">
    <g id="ytick_1">
     <g id="line2d_7">
      <defs>
       <path d="M 0 0 
L -3.5 0 
" id="m998b4eda62" style="stroke:#000000;stroke-width:0.8;"/>
      </defs>
      <g>
       <use style="stroke:#000000;stroke-width:0.8;" x="57.6" xlink:href="#m998b4eda62" y="304.033382"/>
      </g>
     </g>
     <g id="text_8">
      <!-- 0.0 -->
      <g transform="translate(34.696875 307.832601)scale(0.1 -0.1)">
       <defs>
        <path d="M 684 794 
L 1344 794 
L 1344 0 
L 684 0 
L 684 794 
z
" id="DejaVuSans-2e" transform="scale(0.015625)"/>
       </defs>
       <use xlink:href="#DejaVuSans-30"/>
       <use x="63.623047" xlink:href="#DejaVuSans-2e"/>
       <use x="95.410156" xlink:href="#DejaVuSans-30"/>
      </g>
     </g>
    </g>
    <g id="ytick_2">
     <g id="line2d_8">
      <g>
       <use style="stroke:#000000;stroke-width:0.8;" x="57.6" xlink:href="#m998b4eda62" y="267.954562"/>
      </g>
     </g>
     <g id="text_9">
      <!-- 0.1 -->
      <g transform="translate(34.696875 271.753781)scale(0.1 -0.1)">
       <use xlink:href="#DejaVuSans-30"/>
       <use x="63.623047" xlink:href="#DejaVuSans-2e"/>
       <use x="95.410156" xlink:href="#DejaVuSans-31"/>
      </g>
     </g>
    </g>
    <g id="ytick_3">
     <g id="line2d_9">
      <g>
       <use style="stroke:#000000;stroke-width:0.8;" x="57.6" xlink:href="#m998b4eda62" y="231.875742"/>
      </g>
     </g>
     <g id="text_10">
      <!-- 0.2 -->
      <g transform="translate(34.696875 235.674961)scale(0.1 -0.1)">
       <use xlink:href="#DejaVuSans-30"/>
       <use x="63.623047" xlink:href="#DejaVuSans-2e"/>
       <use x="95.410156" xlink:href="#DejaVuSans-32"/>
      </g>
     </g>
    </g>
    <g id="ytick_4">
     <g id="line2d_10">
      <g>
       <use style="stroke:#000000;stroke-width:0.8;" x="57.6" xlink:href="#m998b4eda62" y="195.796922"/>
      </g>
     </g>
     <g id="text_11">
      <!-- 0.3 -->
      <g transform="translate(34.696875 199.596141)scale(0.1 -0.1)">
       <defs>
        <path d="M 2597 2516 
Q 3050 2419 3304 2112 
Q 3559 1806 3559 1356 
Q 3559 666 3084 287 
Q 2609 -91 1734 -91 
Q 1441 -91 1130 -33 
Q 819 25 488 141 
L 488 750 
Q 750 597 1062 519 
Q 1375 441 1716 441 
Q 2309 441 2620 675 
Q 2931 909 2931 1356 
Q 2931 1769 2642 2001 
Q 2353 2234 1838 2234 
L 1294 2234 
L 1294 2753 
L 1863 2753 
Q 2328 2753 2575 2939 
Q 2822 3125 2822 3475 
Q 2822 3834 2567 4026 
Q 2313 4219 1838 4219 
Q 1578 4219 1281 4162 
Q 984 4106 628 3988 
L 628 4550 
Q 988 4650 1302 4700 
Q 1616 4750 1894 4750 
Q 2613 4750 3031 4423 
Q 3450 4097 3450 3541 
Q 3450 3153 3228 2886 
Q 3006 2619 2597 2516 
z
" id="DejaVuSans-33" transform="scale(0.015625)"/>
       </defs>
       <use xlink:href="#DejaVuSans-30"/>
       <use x="63.623047" xlink:href="#DejaVuSans-2e"/>
       <use x="95.410156" xlink:href="#DejaVuSans-33"/>
      </g>
     </g>
    </g>
    <g id="ytick_5">
     <g id="line2d_11">
      <g>
       <use style="stroke:#000000;stroke-width:0.8;" x="57.6" xlink:href="#m998b4eda62" y="159.718102"/>
      </g>
     </g>
     <g id="text_12">
      <!-- 0.4 -->
      <g transform="translate(34.696875 163.517321)scale(0.1 -0.1)">
       <defs>
        <path d="M 2419 4116 
L 825 1625 
L 2419 1625 
L 2419 4116 
z
M 2253 4666 
L 3047 4666 
L 3047 1625 
L 3713 1625 
L 3713 1100 
L 3047 1100 
L 3047 0 
L 2419 0 
L 2419 1100 
L 313 1100 
L 313 1709 
L 2253 4666 
z
" id="DejaVuSans-34" transform="scale(0.015625)"/>
       </defs>
       <use xlink:href="#DejaVuSans-30"/>
       <use x="63.623047" xlink:href="#DejaVuSans-2e"/>
       <use x="95.410156" xlink:href="#DejaVuSans-34"/>
      </g>
     </g>
    </g>
    <g id="ytick_6">
     <g id="line2d_12">
      <g>
       <use style="stroke:#000000;stroke-width:0.8;" x="57.6" xlink:href="#m998b4eda62" y="123.639282"/>
      </g>
     </g>
     <g id="text_13">
      <!-- 0.5 -->
      <g transform="translate(34.696875 127.438501)scale(0.1 -0.1)">
       <use xlink:href="#DejaVuSans-30"/>
       <use x="63.623047" xlink:href="#DejaVuSans-2e"/>
       <use x="95.410156" xlink:href="#DejaVuSans-35"/>
      </g>
     </g>
    </g>
    <g id="ytick_7">
     <g id="line2d_13">
      <g>
       <use style="stroke:#000000;stroke-width:0.8;" x="57.6" xlink:href="#m998b4eda62" y="87.560462"/>
      </g>
     </g>
     <g id="text_14">
      <!-- 0.6 -->
      <g transform="translate(34.696875 91.359681)scale(0.1 -0.1)">
       <defs>
        <path d="M 2113 2584 
Q 1688 2584 1439 2293 
Q 1191 2003 1191 1497 
Q 1191 994 1439 701 
Q 1688 409 2113 409 
Q 2538 409 2786 701 
Q 3034 994 3034 1497 
Q 3034 2003 2786 2293 
Q 2538 2584 2113 2584 
z
M 3366 4563 
L 3366 3988 
Q 3128 4100 2886 4159 
Q 2644 4219 2406 4219 
Q 1781 4219 1451 3797 
Q 1122 3375 1075 2522 
Q 1259 2794 1537 2939 
Q 1816 3084 2150 3084 
Q 2853 3084 3261 2657 
Q 3669 2231 3669 1497 
Q 3669 778 3244 343 
Q 2819 -91 2113 -91 
Q 1303 -91 875 529 
Q 447 1150 447 2328 
Q 447 3434 972 4092 
Q 1497 4750 2381 4750 
Q 2619 4750 2861 4703 
Q 3103 4656 3366 4563 
z
" id="DejaVuSans-36" transform="scale(0.015625)"/>
       </defs>
       <use xlink:href="#DejaVuSans-30"/>
       <use x="63.623047" xlink:href="#DejaVuSans-2e"/>
       <use x="95.410156" xlink:href="#DejaVuSans-36"/>
      </g>
     </g>
    </g>
    <g id="ytick_8">
     <g id="line2d_14">
      <g>
       <use style="stroke:#000000;stroke-width:0.8;" x="57.6" xlink:href="#m998b4eda62" y="51.481642"/>
      </g>
     </g>
     <g id="text_15">
      <!-- 0.7 -->
      <g transform="translate(34.696875 55.280861)scale(0.1 -0.1)">
       <defs>
        <path d="M 525 4666 
L 3525 4666 
L 3525 4397 
L 1831 0 
L 1172 0 
L 2766 4134 
L 525 4134 
L 525 4666 
z
" id="DejaVuSans-37" transform="scale(0.015625)"/>
       </defs>
       <use xlink:href="#DejaVuSans-30"/>
       <use x="63.623047" xlink:href="#DejaVuSans-2e"/>
       <use x="95.410156" xlink:href="#DejaVuSans-37"/>
      </g>
     </g>
    </g>
    <g id="text_16">
     <!-- Index -->
     <g transform="translate(28.617188 188.294406)rotate(-90)scale(0.1 -0.1)">
      <defs>
       <path d="M 628 4666 
L 1259 4666 
L 1259 0 
L 628 0 
L 628 4666 
z
" id="DejaVuSans-49" transform="scale(0.015625)"/>
       <path d="M 3513 3500 
L 2247 1797 
L 3578 0 
L 2900 0 
L 1881 1375 
L 863 0 
L 184 0 
L 1544 1831 
L 300 3500 
L 978 3500 
L 1906 2253 
L 2834 3500 
L 3513 3500 
z
" id="DejaVuSans-78" transform="scale(0.015625)"/>
      </defs>
      <use xlink:href="#DejaVuSans-49"/>
      <use x="29.492188" xlink:href="#DejaVuSans-6e"/>
      <use x="92.871094" xlink:href="#DejaVuSans-64"/>
      <use x="156.347656" xlink:href="#DejaVuSans-65"/>
      <use x="216.121094" xlink:href="#DejaVuSans-78"/>
     </g>
    </g>
   </g>
   <g id="patch_3">
    <path d="M 57.6 307.584 
L 57.6 41.472 
" style="fill:none;stroke:#000000;stroke-linecap:square;stroke-linejoin:miter;stroke-width:0.8;"/>
   </g>
   <g id="patch_4">
    <path d="M 414.72 307.584 
L 414.72 41.472 
" style="fill:none;stroke:#000000;stroke-linecap:square;stroke-linejoin:miter;stroke-width:0.8;"/>
   </g>
   <g id="patch_5">
    <path d="M 57.6 307.584 
L 414.72 307.584 
" style="fill:none;stroke:#000000;stroke-linecap:square;stroke-linejoin:miter;stroke-width:0.8;"/>
   </g>
   <g id="patch_6">
    <path d="M 57.6 41.472 
L 414.72 41.472 
" style="fill:none;stroke:#000000;stroke-linecap:square;stroke-linejoin:miter;stroke-width:0.8;"/>
   </g>
  </g>
 </g>
 <defs>
  <clipPath id="pa5f3dac09a">
   <rect height="266.112" width="357.12" x="57.6" y="41.472"/>
  </clipPath>
 </defs>
</svg>
