<?xml version="1.0" encoding="utf-8" standalone="no"?>
<!DOCTYPE svg PUBLIC "-//W3C//DTD SVG 1.1//EN"
  "http://www.w3.org/Graphics/SVG/1.1/DTD/svg11.dtd">
<svg height="345.6pt" version="1.1" viewBox="0 0 460.8 345.6" width="460.8pt" xmlns="http://www.w3.org/2000/svg" xmlns:xlink="http://www.w3.org/1999/xlink">
 <metadata>
  <rdf:RDF xmlns:cc="http://creativecommons.org/ns#" xmlns:dc="http://purl.org/dc/elements/1.1/" xmlns:rdf="http://www.w3.org/1999/02/22-rdf-syntax-ns#">
   <cc:Work>
    <dc:type rdf:resource="http://purl.org/dc/dcmitype/StillImage"/>
    <dc:date>2022-12-02T13:07:32.456790</dc:date>
    <dc:format>image/svg+xml</dc:format>
    <dc:creator>
     <cc:Agent>
      <dc:title>Matplotlib v3.4.3, https://matplotlib.org/</dc:title>
     </cc:Agent>
    </dc:creator>
   </cc:Work>
  </rdf:RDF>
 </metadata>
 <defs>
  <style type="text/css">*{stroke-linecap:butt;stroke-linejoin:round;}</style>
 </defs>
 <g id="figure_1">
  <g id="patch_1">
   <path d="M 0 345.6 
L 460.8 345.6 
L 460.8 0 
L 0 0 
z
" style="fill:#ffffff;"/>
  </g>
  <g id="axes_1">
   <g id="patch_2">
    <path d="M 57.6 307.584 
L 414.72 307.584 
L 414.72 41.472 
L 57.6 41.472 
z
" style="fill:#ffffff;"/>
   </g>
   <g id="PathCollection_1">
    <defs>
     <path d="M 0 3 
C 0.795609 3 1.55874 2.683901 2.12132 2.12132 
C 2.683901 1.55874 3 0.795609 3 0 
C 3 -0.795609 2.683901 -1.55874 2.12132 -2.12132 
C 1.55874 -2.683901 0.795609 -3 0 -3 
C -0.795609 -3 -1.55874 -2.683901 -2.12132 -2.12132 
C -2.683901 -1.55874 -3 -0.795609 -3 0 
C -3 0.795609 -2.683901 1.55874 -2.12132 2.12132 
C -1.55874 2.683901 -0.795609 3 0 3 
z
" id="ma63af58564" style="stroke:#000000;"/>
    </defs>
    <g clip-path="url(#pb148357b1e)">
     <use style="stroke:#000000;" x="73.832727" xlink:href="#ma63af58564" y="53.568"/>
     <use style="stroke:#000000;" x="75.179842" xlink:href="#ma63af58564" y="54.022395"/>
     <use style="stroke:#000000;" x="76.526956" xlink:href="#ma63af58564" y="72.511895"/>
     <use style="stroke:#000000;" x="77.87407" xlink:href="#ma63af58564" y="77.368824"/>
     <use style="stroke:#000000;" x="79.221184" xlink:href="#ma63af58564" y="81.386303"/>
     <use style="stroke:#000000;" x="80.568299" xlink:href="#ma63af58564" y="95.665536"/>
     <use style="stroke:#000000;" x="81.915413" xlink:href="#ma63af58564" y="97.232882"/>
     <use style="stroke:#000000;" x="83.262527" xlink:href="#ma63af58564" y="100.977085"/>
     <use style="stroke:#000000;" x="84.609642" xlink:href="#ma63af58564" y="101.504823"/>
     <use style="stroke:#000000;" x="85.956756" xlink:href="#ma63af58564" y="101.863424"/>
     <use style="stroke:#000000;" x="87.30387" xlink:href="#ma63af58564" y="101.870836"/>
     <use style="stroke:#000000;" x="88.650985" xlink:href="#ma63af58564" y="105.772911"/>
     <use style="stroke:#000000;" x="89.998099" xlink:href="#ma63af58564" y="106.435367"/>
     <use style="stroke:#000000;" x="91.345213" xlink:href="#ma63af58564" y="107.727301"/>
     <use style="stroke:#000000;" x="92.692327" xlink:href="#ma63af58564" y="108.293608"/>
     <use style="stroke:#000000;" x="94.039442" xlink:href="#ma63af58564" y="108.770121"/>
     <use style="stroke:#000000;" x="95.386556" xlink:href="#ma63af58564" y="111.332451"/>
     <use style="stroke:#000000;" x="96.73367" xlink:href="#ma63af58564" y="112.871756"/>
     <use style="stroke:#000000;" x="98.080785" xlink:href="#ma63af58564" y="113.502149"/>
     <use style="stroke:#000000;" x="99.427899" xlink:href="#ma63af58564" y="113.901026"/>
     <use style="stroke:#000000;" x="100.775013" xlink:href="#ma63af58564" y="119.636847"/>
     <use style="stroke:#000000;" x="102.122127" xlink:href="#ma63af58564" y="123.841357"/>
     <use style="stroke:#000000;" x="103.469242" xlink:href="#ma63af58564" y="124.343191"/>
     <use style="stroke:#000000;" x="104.816356" xlink:href="#ma63af58564" y="124.930694"/>
     <use style="stroke:#000000;" x="106.16347" xlink:href="#ma63af58564" y="126.515819"/>
     <use style="stroke:#000000;" x="107.510585" xlink:href="#ma63af58564" y="127.792136"/>
     <use style="stroke:#000000;" x="108.857699" xlink:href="#ma63af58564" y="128.312918"/>
     <use style="stroke:#000000;" x="110.204813" xlink:href="#ma63af58564" y="130.652694"/>
     <use style="stroke:#000000;" x="111.551928" xlink:href="#ma63af58564" y="133.074463"/>
     <use style="stroke:#000000;" x="112.899042" xlink:href="#ma63af58564" y="133.680561"/>
     <use style="stroke:#000000;" x="114.246156" xlink:href="#ma63af58564" y="135.36485"/>
     <use style="stroke:#000000;" x="115.59327" xlink:href="#ma63af58564" y="136.728422"/>
     <use style="stroke:#000000;" x="116.940385" xlink:href="#ma63af58564" y="136.805778"/>
     <use style="stroke:#000000;" x="118.287499" xlink:href="#ma63af58564" y="137.622756"/>
     <use style="stroke:#000000;" x="119.634613" xlink:href="#ma63af58564" y="137.862921"/>
     <use style="stroke:#000000;" x="120.981728" xlink:href="#ma63af58564" y="138.626874"/>
     <use style="stroke:#000000;" x="122.328842" xlink:href="#ma63af58564" y="140.329694"/>
     <use style="stroke:#000000;" x="123.675956" xlink:href="#ma63af58564" y="147.980209"/>
     <use style="stroke:#000000;" x="125.023071" xlink:href="#ma63af58564" y="148.210253"/>
     <use style="stroke:#000000;" x="126.370185" xlink:href="#ma63af58564" y="148.591172"/>
     <use style="stroke:#000000;" x="127.717299" xlink:href="#ma63af58564" y="151.135201"/>
     <use style="stroke:#000000;" x="129.064413" xlink:href="#ma63af58564" y="154.493808"/>
     <use style="stroke:#000000;" x="130.411528" xlink:href="#ma63af58564" y="160.264245"/>
     <use style="stroke:#000000;" x="131.758642" xlink:href="#ma63af58564" y="160.875377"/>
     <use style="stroke:#000000;" x="133.105756" xlink:href="#ma63af58564" y="164.764059"/>
     <use style="stroke:#000000;" x="134.452871" xlink:href="#ma63af58564" y="165.51666"/>
     <use style="stroke:#000000;" x="135.799985" xlink:href="#ma63af58564" y="167.831376"/>
     <use style="stroke:#000000;" x="137.147099" xlink:href="#ma63af58564" y="168.93159"/>
     <use style="stroke:#000000;" x="138.494214" xlink:href="#ma63af58564" y="169.085146"/>
     <use style="stroke:#000000;" x="139.841328" xlink:href="#ma63af58564" y="169.878168"/>
     <use style="stroke:#000000;" x="141.188442" xlink:href="#ma63af58564" y="172.615653"/>
     <use style="stroke:#000000;" x="142.535556" xlink:href="#ma63af58564" y="172.845411"/>
     <use style="stroke:#000000;" x="143.882671" xlink:href="#ma63af58564" y="173.196309"/>
     <use style="stroke:#000000;" x="145.229785" xlink:href="#ma63af58564" y="173.889479"/>
     <use style="stroke:#000000;" x="146.576899" xlink:href="#ma63af58564" y="175.244802"/>
     <use style="stroke:#000000;" x="147.924014" xlink:href="#ma63af58564" y="178.277576"/>
     <use style="stroke:#000000;" x="149.271128" xlink:href="#ma63af58564" y="178.350193"/>
     <use style="stroke:#000000;" x="150.618242" xlink:href="#ma63af58564" y="178.749712"/>
     <use style="stroke:#000000;" x="151.965356" xlink:href="#ma63af58564" y="179.442322"/>
     <use style="stroke:#000000;" x="153.312471" xlink:href="#ma63af58564" y="179.488415"/>
     <use style="stroke:#000000;" x="154.659585" xlink:href="#ma63af58564" y="180.004416"/>
     <use style="stroke:#000000;" x="156.006699" xlink:href="#ma63af58564" y="180.358021"/>
     <use style="stroke:#000000;" x="157.353814" xlink:href="#ma63af58564" y="182.000469"/>
     <use style="stroke:#000000;" x="158.700928" xlink:href="#ma63af58564" y="182.410936"/>
     <use style="stroke:#000000;" x="160.048042" xlink:href="#ma63af58564" y="182.769187"/>
     <use style="stroke:#000000;" x="161.395157" xlink:href="#ma63af58564" y="183.501517"/>
     <use style="stroke:#000000;" x="162.742271" xlink:href="#ma63af58564" y="183.516244"/>
     <use style="stroke:#000000;" x="164.089385" xlink:href="#ma63af58564" y="183.917009"/>
     <use style="stroke:#000000;" x="165.436499" xlink:href="#ma63af58564" y="183.976751"/>
     <use style="stroke:#000000;" x="166.783614" xlink:href="#ma63af58564" y="184.184173"/>
     <use style="stroke:#000000;" x="168.130728" xlink:href="#ma63af58564" y="184.25722"/>
     <use style="stroke:#000000;" x="169.477842" xlink:href="#ma63af58564" y="184.457473"/>
     <use style="stroke:#000000;" x="170.824957" xlink:href="#ma63af58564" y="184.691582"/>
     <use style="stroke:#000000;" x="172.172071" xlink:href="#ma63af58564" y="184.755397"/>
     <use style="stroke:#000000;" x="173.519185" xlink:href="#ma63af58564" y="184.958469"/>
     <use style="stroke:#000000;" x="174.8663" xlink:href="#ma63af58564" y="186.069654"/>
     <use style="stroke:#000000;" x="176.213414" xlink:href="#ma63af58564" y="187.308285"/>
     <use style="stroke:#000000;" x="177.560528" xlink:href="#ma63af58564" y="188.364643"/>
     <use style="stroke:#000000;" x="178.907642" xlink:href="#ma63af58564" y="189.251329"/>
     <use style="stroke:#000000;" x="180.254757" xlink:href="#ma63af58564" y="189.26176"/>
     <use style="stroke:#000000;" x="181.601871" xlink:href="#ma63af58564" y="189.877375"/>
     <use style="stroke:#000000;" x="182.948985" xlink:href="#ma63af58564" y="190.160099"/>
     <use style="stroke:#000000;" x="184.2961" xlink:href="#ma63af58564" y="190.911853"/>
     <use style="stroke:#000000;" x="185.643214" xlink:href="#ma63af58564" y="191.8772"/>
     <use style="stroke:#000000;" x="186.990328" xlink:href="#ma63af58564" y="192.079376"/>
     <use style="stroke:#000000;" x="188.337442" xlink:href="#ma63af58564" y="192.897137"/>
     <use style="stroke:#000000;" x="189.684557" xlink:href="#ma63af58564" y="197.761549"/>
     <use style="stroke:#000000;" x="191.031671" xlink:href="#ma63af58564" y="200.815618"/>
     <use style="stroke:#000000;" x="192.378785" xlink:href="#ma63af58564" y="201.619801"/>
     <use style="stroke:#000000;" x="193.7259" xlink:href="#ma63af58564" y="201.800672"/>
     <use style="stroke:#000000;" x="195.073014" xlink:href="#ma63af58564" y="206.048425"/>
     <use style="stroke:#000000;" x="196.420128" xlink:href="#ma63af58564" y="206.443325"/>
     <use style="stroke:#000000;" x="197.767243" xlink:href="#ma63af58564" y="208.405241"/>
     <use style="stroke:#000000;" x="199.114357" xlink:href="#ma63af58564" y="210.721261"/>
     <use style="stroke:#000000;" x="200.461471" xlink:href="#ma63af58564" y="210.949101"/>
     <use style="stroke:#000000;" x="201.808585" xlink:href="#ma63af58564" y="211.334023"/>
     <use style="stroke:#000000;" x="203.1557" xlink:href="#ma63af58564" y="212.432413"/>
     <use style="stroke:#000000;" x="204.502814" xlink:href="#ma63af58564" y="215.856243"/>
     <use style="stroke:#000000;" x="205.849928" xlink:href="#ma63af58564" y="216.197907"/>
     <use style="stroke:#000000;" x="207.197043" xlink:href="#ma63af58564" y="216.307981"/>
     <use style="stroke:#000000;" x="208.544157" xlink:href="#ma63af58564" y="217.333933"/>
     <use style="stroke:#000000;" x="209.891271" xlink:href="#ma63af58564" y="221.522936"/>
     <use style="stroke:#000000;" x="211.238386" xlink:href="#ma63af58564" y="221.740423"/>
     <use style="stroke:#000000;" x="212.5855" xlink:href="#ma63af58564" y="222.144918"/>
     <use style="stroke:#000000;" x="213.932614" xlink:href="#ma63af58564" y="222.280816"/>
     <use style="stroke:#000000;" x="215.279728" xlink:href="#ma63af58564" y="222.290253"/>
     <use style="stroke:#000000;" x="216.626843" xlink:href="#ma63af58564" y="223.295153"/>
     <use style="stroke:#000000;" x="217.973957" xlink:href="#ma63af58564" y="225.173957"/>
     <use style="stroke:#000000;" x="219.321071" xlink:href="#ma63af58564" y="226.048898"/>
     <use style="stroke:#000000;" x="220.668186" xlink:href="#ma63af58564" y="227.412322"/>
     <use style="stroke:#000000;" x="222.0153" xlink:href="#ma63af58564" y="228.323496"/>
     <use style="stroke:#000000;" x="223.362414" xlink:href="#ma63af58564" y="230.9971"/>
     <use style="stroke:#000000;" x="224.709528" xlink:href="#ma63af58564" y="232.725683"/>
     <use style="stroke:#000000;" x="226.056643" xlink:href="#ma63af58564" y="233.154305"/>
     <use style="stroke:#000000;" x="227.403757" xlink:href="#ma63af58564" y="233.740157"/>
     <use style="stroke:#000000;" x="228.750871" xlink:href="#ma63af58564" y="239.286771"/>
     <use style="stroke:#000000;" x="230.097986" xlink:href="#ma63af58564" y="239.822764"/>
     <use style="stroke:#000000;" x="231.4451" xlink:href="#ma63af58564" y="240.493449"/>
     <use style="stroke:#000000;" x="232.792214" xlink:href="#ma63af58564" y="241.828673"/>
     <use style="stroke:#000000;" x="234.139329" xlink:href="#ma63af58564" y="243.992808"/>
     <use style="stroke:#000000;" x="235.486443" xlink:href="#ma63af58564" y="244.61981"/>
     <use style="stroke:#000000;" x="236.833557" xlink:href="#ma63af58564" y="244.875076"/>
     <use style="stroke:#000000;" x="238.180671" xlink:href="#ma63af58564" y="245.488101"/>
     <use style="stroke:#000000;" x="239.527786" xlink:href="#ma63af58564" y="245.957909"/>
     <use style="stroke:#000000;" x="240.8749" xlink:href="#ma63af58564" y="249.151366"/>
     <use style="stroke:#000000;" x="242.222014" xlink:href="#ma63af58564" y="249.942959"/>
     <use style="stroke:#000000;" x="243.569129" xlink:href="#ma63af58564" y="251.366168"/>
     <use style="stroke:#000000;" x="244.916243" xlink:href="#ma63af58564" y="251.810326"/>
     <use style="stroke:#000000;" x="246.263357" xlink:href="#ma63af58564" y="252.558096"/>
     <use style="stroke:#000000;" x="247.610472" xlink:href="#ma63af58564" y="253.233721"/>
     <use style="stroke:#000000;" x="248.957586" xlink:href="#ma63af58564" y="254.904446"/>
     <use style="stroke:#000000;" x="250.3047" xlink:href="#ma63af58564" y="255.64587"/>
     <use style="stroke:#000000;" x="251.651814" xlink:href="#ma63af58564" y="256.535016"/>
     <use style="stroke:#000000;" x="252.998929" xlink:href="#ma63af58564" y="258.228623"/>
     <use style="stroke:#000000;" x="254.346043" xlink:href="#ma63af58564" y="258.481759"/>
     <use style="stroke:#000000;" x="255.693157" xlink:href="#ma63af58564" y="259.173936"/>
     <use style="stroke:#000000;" x="257.040272" xlink:href="#ma63af58564" y="260.457479"/>
     <use style="stroke:#000000;" x="258.387386" xlink:href="#ma63af58564" y="263.88687"/>
     <use style="stroke:#000000;" x="259.7345" xlink:href="#ma63af58564" y="263.901247"/>
     <use style="stroke:#000000;" x="261.081614" xlink:href="#ma63af58564" y="264.821485"/>
     <use style="stroke:#000000;" x="262.428729" xlink:href="#ma63af58564" y="266.674763"/>
     <use style="stroke:#000000;" x="263.775843" xlink:href="#ma63af58564" y="268.263257"/>
     <use style="stroke:#000000;" x="265.122957" xlink:href="#ma63af58564" y="273.380543"/>
     <use style="stroke:#000000;" x="266.470072" xlink:href="#ma63af58564" y="275.190076"/>
     <use style="stroke:#000000;" x="267.817186" xlink:href="#ma63af58564" y="275.191994"/>
     <use style="stroke:#000000;" x="269.1643" xlink:href="#ma63af58564" y="275.565905"/>
     <use style="stroke:#000000;" x="270.511415" xlink:href="#ma63af58564" y="275.809534"/>
     <use style="stroke:#000000;" x="271.858529" xlink:href="#ma63af58564" y="278.00499"/>
     <use style="stroke:#000000;" x="273.205643" xlink:href="#ma63af58564" y="280.756994"/>
     <use style="stroke:#000000;" x="274.552757" xlink:href="#ma63af58564" y="294.135665"/>
    </g>
   </g>
   <g id="PathCollection_2">
    <defs>
     <path d="M 0 3 
C 0.795609 3 1.55874 2.683901 2.12132 2.12132 
C 2.683901 1.55874 3 0.795609 3 0 
C 3 -0.795609 2.683901 -1.55874 2.12132 -2.12132 
C 1.55874 -2.683901 0.795609 -3 0 -3 
C -0.795609 -3 -1.55874 -2.683901 -2.12132 -2.12132 
C -2.683901 -1.55874 -3 -0.795609 -3 0 
C -3 0.795609 -2.683901 1.55874 -2.12132 2.12132 
C -1.55874 2.683901 -0.795609 3 0 3 
z
" id="m0c3727a00c" style="stroke:#ff0000;"/>
    </defs>
    <g clip-path="url(#pb148357b1e)">
     <use style="fill:#ff0000;stroke:#ff0000;" x="275.899872" xlink:href="#m0c3727a00c" y="250.51147"/>
     <use style="fill:#ff0000;stroke:#ff0000;" x="277.246986" xlink:href="#m0c3727a00c" y="218.772515"/>
     <use style="fill:#ff0000;stroke:#ff0000;" x="278.5941" xlink:href="#m0c3727a00c" y="280.657414"/>
     <use style="fill:#ff0000;stroke:#ff0000;" x="279.941215" xlink:href="#m0c3727a00c" y="229.052748"/>
     <use style="fill:#ff0000;stroke:#ff0000;" x="281.288329" xlink:href="#m0c3727a00c" y="230.89933"/>
     <use style="fill:#ff0000;stroke:#ff0000;" x="282.635443" xlink:href="#m0c3727a00c" y="183.783558"/>
     <use style="fill:#ff0000;stroke:#ff0000;" x="283.982558" xlink:href="#m0c3727a00c" y="199.654634"/>
     <use style="fill:#ff0000;stroke:#ff0000;" x="285.329672" xlink:href="#m0c3727a00c" y="256.637278"/>
     <use style="fill:#ff0000;stroke:#ff0000;" x="286.676786" xlink:href="#m0c3727a00c" y="278.467756"/>
     <use style="fill:#ff0000;stroke:#ff0000;" x="288.0239" xlink:href="#m0c3727a00c" y="216.783997"/>
     <use style="fill:#ff0000;stroke:#ff0000;" x="289.371015" xlink:href="#m0c3727a00c" y="257.415874"/>
     <use style="fill:#ff0000;stroke:#ff0000;" x="290.718129" xlink:href="#m0c3727a00c" y="267.677508"/>
     <use style="fill:#ff0000;stroke:#ff0000;" x="292.065243" xlink:href="#m0c3727a00c" y="169.789151"/>
     <use style="fill:#ff0000;stroke:#ff0000;" x="293.412358" xlink:href="#m0c3727a00c" y="200.736328"/>
     <use style="fill:#ff0000;stroke:#ff0000;" x="294.759472" xlink:href="#m0c3727a00c" y="260.511942"/>
     <use style="fill:#ff0000;stroke:#ff0000;" x="296.106586" xlink:href="#m0c3727a00c" y="283.517948"/>
     <use style="fill:#ff0000;stroke:#ff0000;" x="297.4537" xlink:href="#m0c3727a00c" y="283.517948"/>
     <use style="fill:#ff0000;stroke:#ff0000;" x="298.800815" xlink:href="#m0c3727a00c" y="283.517948"/>
     <use style="fill:#ff0000;stroke:#ff0000;" x="300.147929" xlink:href="#m0c3727a00c" y="189.852706"/>
     <use style="fill:#ff0000;stroke:#ff0000;" x="301.495043" xlink:href="#m0c3727a00c" y="264.700858"/>
     <use style="fill:#ff0000;stroke:#ff0000;" x="302.842158" xlink:href="#m0c3727a00c" y="280.288699"/>
     <use style="fill:#ff0000;stroke:#ff0000;" x="304.189272" xlink:href="#m0c3727a00c" y="248.536655"/>
     <use style="fill:#ff0000;stroke:#ff0000;" x="305.536386" xlink:href="#m0c3727a00c" y="283.517948"/>
     <use style="fill:#ff0000;stroke:#ff0000;" x="306.883501" xlink:href="#m0c3727a00c" y="251.460545"/>
     <use style="fill:#ff0000;stroke:#ff0000;" x="308.230615" xlink:href="#m0c3727a00c" y="247.699438"/>
     <use style="fill:#ff0000;stroke:#ff0000;" x="309.577729" xlink:href="#m0c3727a00c" y="262.667454"/>
     <use style="fill:#ff0000;stroke:#ff0000;" x="310.924843" xlink:href="#m0c3727a00c" y="220.109153"/>
     <use style="fill:#ff0000;stroke:#ff0000;" x="312.271958" xlink:href="#m0c3727a00c" y="181.40658"/>
     <use style="fill:#ff0000;stroke:#ff0000;" x="313.619072" xlink:href="#m0c3727a00c" y="263.344662"/>
     <use style="fill:#ff0000;stroke:#ff0000;" x="314.966186" xlink:href="#m0c3727a00c" y="283.517948"/>
     <use style="fill:#ff0000;stroke:#ff0000;" x="316.313301" xlink:href="#m0c3727a00c" y="203.942673"/>
     <use style="fill:#ff0000;stroke:#ff0000;" x="317.660415" xlink:href="#m0c3727a00c" y="241.692723"/>
     <use style="fill:#ff0000;stroke:#ff0000;" x="319.007529" xlink:href="#m0c3727a00c" y="271.810878"/>
     <use style="fill:#ff0000;stroke:#ff0000;" x="320.354644" xlink:href="#m0c3727a00c" y="238.354518"/>
     <use style="fill:#ff0000;stroke:#ff0000;" x="321.701758" xlink:href="#m0c3727a00c" y="283.517948"/>
     <use style="fill:#ff0000;stroke:#ff0000;" x="323.048872" xlink:href="#m0c3727a00c" y="232.325636"/>
     <use style="fill:#ff0000;stroke:#ff0000;" x="324.395986" xlink:href="#m0c3727a00c" y="272.095601"/>
     <use style="fill:#ff0000;stroke:#ff0000;" x="325.743101" xlink:href="#m0c3727a00c" y="286.75088"/>
     <use style="fill:#ff0000;stroke:#ff0000;" x="327.090215" xlink:href="#m0c3727a00c" y="250.766937"/>
     <use style="fill:#ff0000;stroke:#ff0000;" x="328.437329" xlink:href="#m0c3727a00c" y="227.324604"/>
     <use style="fill:#ff0000;stroke:#ff0000;" x="329.784444" xlink:href="#m0c3727a00c" y="224.195219"/>
     <use style="fill:#ff0000;stroke:#ff0000;" x="331.131558" xlink:href="#m0c3727a00c" y="283.517948"/>
     <use style="fill:#ff0000;stroke:#ff0000;" x="332.478672" xlink:href="#m0c3727a00c" y="283.517948"/>
     <use style="fill:#ff0000;stroke:#ff0000;" x="333.825786" xlink:href="#m0c3727a00c" y="278.939625"/>
     <use style="fill:#ff0000;stroke:#ff0000;" x="335.172901" xlink:href="#m0c3727a00c" y="277.888749"/>
     <use style="fill:#ff0000;stroke:#ff0000;" x="336.520015" xlink:href="#m0c3727a00c" y="277.904321"/>
     <use style="fill:#ff0000;stroke:#ff0000;" x="337.867129" xlink:href="#m0c3727a00c" y="274.622725"/>
     <use style="fill:#ff0000;stroke:#ff0000;" x="339.214244" xlink:href="#m0c3727a00c" y="277.904321"/>
     <use style="fill:#ff0000;stroke:#ff0000;" x="340.561358" xlink:href="#m0c3727a00c" y="215.397558"/>
     <use style="fill:#ff0000;stroke:#ff0000;" x="341.908472" xlink:href="#m0c3727a00c" y="255.720965"/>
     <use style="fill:#ff0000;stroke:#ff0000;" x="343.255587" xlink:href="#m0c3727a00c" y="277.904321"/>
     <use style="fill:#ff0000;stroke:#ff0000;" x="344.602701" xlink:href="#m0c3727a00c" y="275.706271"/>
     <use style="fill:#ff0000;stroke:#ff0000;" x="345.949815" xlink:href="#m0c3727a00c" y="248.167608"/>
     <use style="fill:#ff0000;stroke:#ff0000;" x="347.296929" xlink:href="#m0c3727a00c" y="178.811967"/>
     <use style="fill:#ff0000;stroke:#ff0000;" x="348.644044" xlink:href="#m0c3727a00c" y="175.338959"/>
     <use style="fill:#ff0000;stroke:#ff0000;" x="349.991158" xlink:href="#m0c3727a00c" y="244.433947"/>
     <use style="fill:#ff0000;stroke:#ff0000;" x="351.338272" xlink:href="#m0c3727a00c" y="283.517948"/>
     <use style="fill:#ff0000;stroke:#ff0000;" x="352.685387" xlink:href="#m0c3727a00c" y="279.517314"/>
     <use style="fill:#ff0000;stroke:#ff0000;" x="354.032501" xlink:href="#m0c3727a00c" y="214.440394"/>
     <use style="fill:#ff0000;stroke:#ff0000;" x="355.379615" xlink:href="#m0c3727a00c" y="283.517948"/>
     <use style="fill:#ff0000;stroke:#ff0000;" x="356.72673" xlink:href="#m0c3727a00c" y="243.095186"/>
     <use style="fill:#ff0000;stroke:#ff0000;" x="358.073844" xlink:href="#m0c3727a00c" y="254.841789"/>
     <use style="fill:#ff0000;stroke:#ff0000;" x="359.420958" xlink:href="#m0c3727a00c" y="283.517948"/>
     <use style="fill:#ff0000;stroke:#ff0000;" x="360.768072" xlink:href="#m0c3727a00c" y="280.493925"/>
     <use style="fill:#ff0000;stroke:#ff0000;" x="362.115187" xlink:href="#m0c3727a00c" y="211.49885"/>
     <use style="fill:#ff0000;stroke:#ff0000;" x="363.462301" xlink:href="#m0c3727a00c" y="238.138278"/>
     <use style="fill:#ff0000;stroke:#ff0000;" x="364.809415" xlink:href="#m0c3727a00c" y="168.879577"/>
     <use style="fill:#ff0000;stroke:#ff0000;" x="366.15653" xlink:href="#m0c3727a00c" y="252.94432"/>
     <use style="fill:#ff0000;stroke:#ff0000;" x="367.503644" xlink:href="#m0c3727a00c" y="266.669366"/>
     <use style="fill:#ff0000;stroke:#ff0000;" x="368.850758" xlink:href="#m0c3727a00c" y="283.517948"/>
     <use style="fill:#ff0000;stroke:#ff0000;" x="370.197873" xlink:href="#m0c3727a00c" y="215.656613"/>
     <use style="fill:#ff0000;stroke:#ff0000;" x="371.544987" xlink:href="#m0c3727a00c" y="283.517948"/>
     <use style="fill:#ff0000;stroke:#ff0000;" x="372.892101" xlink:href="#m0c3727a00c" y="164.9143"/>
     <use style="fill:#ff0000;stroke:#ff0000;" x="374.239215" xlink:href="#m0c3727a00c" y="279.414818"/>
     <use style="fill:#ff0000;stroke:#ff0000;" x="375.58633" xlink:href="#m0c3727a00c" y="251.236637"/>
     <use style="fill:#ff0000;stroke:#ff0000;" x="376.933444" xlink:href="#m0c3727a00c" y="280.819459"/>
     <use style="fill:#ff0000;stroke:#ff0000;" x="378.280558" xlink:href="#m0c3727a00c" y="278.010396"/>
     <use style="fill:#ff0000;stroke:#ff0000;" x="379.627673" xlink:href="#m0c3727a00c" y="209.029037"/>
     <use style="fill:#ff0000;stroke:#ff0000;" x="380.974787" xlink:href="#m0c3727a00c" y="237.51497"/>
     <use style="fill:#ff0000;stroke:#ff0000;" x="382.321901" xlink:href="#m0c3727a00c" y="211.730389"/>
     <use style="fill:#ff0000;stroke:#ff0000;" x="383.669015" xlink:href="#m0c3727a00c" y="240.411429"/>
     <use style="fill:#ff0000;stroke:#ff0000;" x="385.01613" xlink:href="#m0c3727a00c" y="229.8626"/>
     <use style="fill:#ff0000;stroke:#ff0000;" x="386.363244" xlink:href="#m0c3727a00c" y="295.488"/>
     <use style="fill:#ff0000;stroke:#ff0000;" x="387.710358" xlink:href="#m0c3727a00c" y="246.502357"/>
     <use style="fill:#ff0000;stroke:#ff0000;" x="389.057473" xlink:href="#m0c3727a00c" y="170.266821"/>
     <use style="fill:#ff0000;stroke:#ff0000;" x="390.404587" xlink:href="#m0c3727a00c" y="180.511413"/>
     <use style="fill:#ff0000;stroke:#ff0000;" x="391.751701" xlink:href="#m0c3727a00c" y="246.895751"/>
     <use style="fill:#ff0000;stroke:#ff0000;" x="393.098816" xlink:href="#m0c3727a00c" y="226.048748"/>
     <use style="fill:#ff0000;stroke:#ff0000;" x="394.44593" xlink:href="#m0c3727a00c" y="253.377236"/>
     <use style="fill:#ff0000;stroke:#ff0000;" x="395.793044" xlink:href="#m0c3727a00c" y="247.304405"/>
     <use style="fill:#ff0000;stroke:#ff0000;" x="397.140158" xlink:href="#m0c3727a00c" y="236.733872"/>
     <use style="fill:#ff0000;stroke:#ff0000;" x="398.487273" xlink:href="#m0c3727a00c" y="225.882653"/>
    </g>
   </g>
   <g id="matplotlib.axis_1">
    <g id="xtick_1">
     <g id="line2d_1">
      <defs>
       <path d="M 0 0 
L 0 3.5 
" id="m540338e03f" style="stroke:#000000;stroke-width:0.8;"/>
      </defs>
      <g>
       <use style="stroke:#000000;stroke-width:0.8;" x="72.485613" xlink:href="#m540338e03f" y="307.584"/>
      </g>
     </g>
     <g id="text_1">
      <!-- 0 -->
      <g transform="translate(69.304363 322.182437)scale(0.1 -0.1)">
       <defs>
        <path d="M 2034 4250 
Q 1547 4250 1301 3770 
Q 1056 3291 1056 2328 
Q 1056 1369 1301 889 
Q 1547 409 2034 409 
Q 2525 409 2770 889 
Q 3016 1369 3016 2328 
Q 3016 3291 2770 3770 
Q 2525 4250 2034 4250 
z
M 2034 4750 
Q 2819 4750 3233 4129 
Q 3647 3509 3647 2328 
Q 3647 1150 3233 529 
Q 2819 -91 2034 -91 
Q 1250 -91 836 529 
Q 422 1150 422 2328 
Q 422 3509 836 4129 
Q 1250 4750 2034 4750 
z
" id="DejaVuSans-30" transform="scale(0.015625)"/>
       </defs>
       <use xlink:href="#DejaVuSans-30"/>
      </g>
     </g>
    </g>
    <g id="xtick_2">
     <g id="line2d_2">
      <g>
       <use style="stroke:#000000;stroke-width:0.8;" x="139.841328" xlink:href="#m540338e03f" y="307.584"/>
      </g>
     </g>
     <g id="text_2">
      <!-- 50 -->
      <g transform="translate(133.478828 322.182437)scale(0.1 -0.1)">
       <defs>
        <path d="M 691 4666 
L 3169 4666 
L 3169 4134 
L 1269 4134 
L 1269 2991 
Q 1406 3038 1543 3061 
Q 1681 3084 1819 3084 
Q 2600 3084 3056 2656 
Q 3513 2228 3513 1497 
Q 3513 744 3044 326 
Q 2575 -91 1722 -91 
Q 1428 -91 1123 -41 
Q 819 9 494 109 
L 494 744 
Q 775 591 1075 516 
Q 1375 441 1709 441 
Q 2250 441 2565 725 
Q 2881 1009 2881 1497 
Q 2881 1984 2565 2268 
Q 2250 2553 1709 2553 
Q 1456 2553 1204 2497 
Q 953 2441 691 2322 
L 691 4666 
z
" id="DejaVuSans-35" transform="scale(0.015625)"/>
       </defs>
       <use xlink:href="#DejaVuSans-35"/>
       <use x="63.623047" xlink:href="#DejaVuSans-30"/>
      </g>
     </g>
    </g>
    <g id="xtick_3">
     <g id="line2d_3">
      <g>
       <use style="stroke:#000000;stroke-width:0.8;" x="207.197043" xlink:href="#m540338e03f" y="307.584"/>
      </g>
     </g>
     <g id="text_3">
      <!-- 100 -->
      <g transform="translate(197.653293 322.182437)scale(0.1 -0.1)">
       <defs>
        <path d="M 794 531 
L 1825 531 
L 1825 4091 
L 703 3866 
L 703 4441 
L 1819 4666 
L 2450 4666 
L 2450 531 
L 3481 531 
L 3481 0 
L 794 0 
L 794 531 
z
" id="DejaVuSans-31" transform="scale(0.015625)"/>
       </defs>
       <use xlink:href="#DejaVuSans-31"/>
       <use x="63.623047" xlink:href="#DejaVuSans-30"/>
       <use x="127.246094" xlink:href="#DejaVuSans-30"/>
      </g>
     </g>
    </g>
    <g id="xtick_4">
     <g id="line2d_4">
      <g>
       <use style="stroke:#000000;stroke-width:0.8;" x="274.552757" xlink:href="#m540338e03f" y="307.584"/>
      </g>
     </g>
     <g id="text_4">
      <!-- 150 -->
      <g transform="translate(265.009007 322.182437)scale(0.1 -0.1)">
       <use xlink:href="#DejaVuSans-31"/>
       <use x="63.623047" xlink:href="#DejaVuSans-35"/>
       <use x="127.246094" xlink:href="#DejaVuSans-30"/>
      </g>
     </g>
    </g>
    <g id="xtick_5">
     <g id="line2d_5">
      <g>
       <use style="stroke:#000000;stroke-width:0.8;" x="341.908472" xlink:href="#m540338e03f" y="307.584"/>
      </g>
     </g>
     <g id="text_5">
      <!-- 200 -->
      <g transform="translate(332.364722 322.182437)scale(0.1 -0.1)">
       <defs>
        <path d="M 1228 531 
L 3431 531 
L 3431 0 
L 469 0 
L 469 531 
Q 828 903 1448 1529 
Q 2069 2156 2228 2338 
Q 2531 2678 2651 2914 
Q 2772 3150 2772 3378 
Q 2772 3750 2511 3984 
Q 2250 4219 1831 4219 
Q 1534 4219 1204 4116 
Q 875 4013 500 3803 
L 500 4441 
Q 881 4594 1212 4672 
Q 1544 4750 1819 4750 
Q 2544 4750 2975 4387 
Q 3406 4025 3406 3419 
Q 3406 3131 3298 2873 
Q 3191 2616 2906 2266 
Q 2828 2175 2409 1742 
Q 1991 1309 1228 531 
z
" id="DejaVuSans-32" transform="scale(0.015625)"/>
       </defs>
       <use xlink:href="#DejaVuSans-32"/>
       <use x="63.623047" xlink:href="#DejaVuSans-30"/>
       <use x="127.246094" xlink:href="#DejaVuSans-30"/>
      </g>
     </g>
    </g>
    <g id="xtick_6">
     <g id="line2d_6">
      <g>
       <use style="stroke:#000000;stroke-width:0.8;" x="409.264187" xlink:href="#m540338e03f" y="307.584"/>
      </g>
     </g>
     <g id="text_6">
      <!-- 250 -->
      <g transform="translate(399.720437 322.182437)scale(0.1 -0.1)">
       <use xlink:href="#DejaVuSans-32"/>
       <use x="63.623047" xlink:href="#DejaVuSans-35"/>
       <use x="127.246094" xlink:href="#DejaVuSans-30"/>
      </g>
     </g>
    </g>
    <g id="text_7">
     <!-- Error between target and SE shape -->
     <g transform="translate(148.375625 335.860562)scale(0.1 -0.1)">
      <defs>
       <path d="M 628 4666 
L 3578 4666 
L 3578 4134 
L 1259 4134 
L 1259 2753 
L 3481 2753 
L 3481 2222 
L 1259 2222 
L 1259 531 
L 3634 531 
L 3634 0 
L 628 0 
L 628 4666 
z
" id="DejaVuSans-45" transform="scale(0.015625)"/>
       <path d="M 2631 2963 
Q 2534 3019 2420 3045 
Q 2306 3072 2169 3072 
Q 1681 3072 1420 2755 
Q 1159 2438 1159 1844 
L 1159 0 
L 581 0 
L 581 3500 
L 1159 3500 
L 1159 2956 
Q 1341 3275 1631 3429 
Q 1922 3584 2338 3584 
Q 2397 3584 2469 3576 
Q 2541 3569 2628 3553 
L 2631 2963 
z
" id="DejaVuSans-72" transform="scale(0.015625)"/>
       <path d="M 1959 3097 
Q 1497 3097 1228 2736 
Q 959 2375 959 1747 
Q 959 1119 1226 758 
Q 1494 397 1959 397 
Q 2419 397 2687 759 
Q 2956 1122 2956 1747 
Q 2956 2369 2687 2733 
Q 2419 3097 1959 3097 
z
M 1959 3584 
Q 2709 3584 3137 3096 
Q 3566 2609 3566 1747 
Q 3566 888 3137 398 
Q 2709 -91 1959 -91 
Q 1206 -91 779 398 
Q 353 888 353 1747 
Q 353 2609 779 3096 
Q 1206 3584 1959 3584 
z
" id="DejaVuSans-6f" transform="scale(0.015625)"/>
       <path id="DejaVuSans-20" transform="scale(0.015625)"/>
       <path d="M 3116 1747 
Q 3116 2381 2855 2742 
Q 2594 3103 2138 3103 
Q 1681 3103 1420 2742 
Q 1159 2381 1159 1747 
Q 1159 1113 1420 752 
Q 1681 391 2138 391 
Q 2594 391 2855 752 
Q 3116 1113 3116 1747 
z
M 1159 2969 
Q 1341 3281 1617 3432 
Q 1894 3584 2278 3584 
Q 2916 3584 3314 3078 
Q 3713 2572 3713 1747 
Q 3713 922 3314 415 
Q 2916 -91 2278 -91 
Q 1894 -91 1617 61 
Q 1341 213 1159 525 
L 1159 0 
L 581 0 
L 581 4863 
L 1159 4863 
L 1159 2969 
z
" id="DejaVuSans-62" transform="scale(0.015625)"/>
       <path d="M 3597 1894 
L 3597 1613 
L 953 1613 
Q 991 1019 1311 708 
Q 1631 397 2203 397 
Q 2534 397 2845 478 
Q 3156 559 3463 722 
L 3463 178 
Q 3153 47 2828 -22 
Q 2503 -91 2169 -91 
Q 1331 -91 842 396 
Q 353 884 353 1716 
Q 353 2575 817 3079 
Q 1281 3584 2069 3584 
Q 2775 3584 3186 3129 
Q 3597 2675 3597 1894 
z
M 3022 2063 
Q 3016 2534 2758 2815 
Q 2500 3097 2075 3097 
Q 1594 3097 1305 2825 
Q 1016 2553 972 2059 
L 3022 2063 
z
" id="DejaVuSans-65" transform="scale(0.015625)"/>
       <path d="M 1172 4494 
L 1172 3500 
L 2356 3500 
L 2356 3053 
L 1172 3053 
L 1172 1153 
Q 1172 725 1289 603 
Q 1406 481 1766 481 
L 2356 481 
L 2356 0 
L 1766 0 
Q 1100 0 847 248 
Q 594 497 594 1153 
L 594 3053 
L 172 3053 
L 172 3500 
L 594 3500 
L 594 4494 
L 1172 4494 
z
" id="DejaVuSans-74" transform="scale(0.015625)"/>
       <path d="M 269 3500 
L 844 3500 
L 1563 769 
L 2278 3500 
L 2956 3500 
L 3675 769 
L 4391 3500 
L 4966 3500 
L 4050 0 
L 3372 0 
L 2619 2869 
L 1863 0 
L 1184 0 
L 269 3500 
z
" id="DejaVuSans-77" transform="scale(0.015625)"/>
       <path d="M 3513 2113 
L 3513 0 
L 2938 0 
L 2938 2094 
Q 2938 2591 2744 2837 
Q 2550 3084 2163 3084 
Q 1697 3084 1428 2787 
Q 1159 2491 1159 1978 
L 1159 0 
L 581 0 
L 581 3500 
L 1159 3500 
L 1159 2956 
Q 1366 3272 1645 3428 
Q 1925 3584 2291 3584 
Q 2894 3584 3203 3211 
Q 3513 2838 3513 2113 
z
" id="DejaVuSans-6e" transform="scale(0.015625)"/>
       <path d="M 2194 1759 
Q 1497 1759 1228 1600 
Q 959 1441 959 1056 
Q 959 750 1161 570 
Q 1363 391 1709 391 
Q 2188 391 2477 730 
Q 2766 1069 2766 1631 
L 2766 1759 
L 2194 1759 
z
M 3341 1997 
L 3341 0 
L 2766 0 
L 2766 531 
Q 2569 213 2275 61 
Q 1981 -91 1556 -91 
Q 1019 -91 701 211 
Q 384 513 384 1019 
Q 384 1609 779 1909 
Q 1175 2209 1959 2209 
L 2766 2209 
L 2766 2266 
Q 2766 2663 2505 2880 
Q 2244 3097 1772 3097 
Q 1472 3097 1187 3025 
Q 903 2953 641 2809 
L 641 3341 
Q 956 3463 1253 3523 
Q 1550 3584 1831 3584 
Q 2591 3584 2966 3190 
Q 3341 2797 3341 1997 
z
" id="DejaVuSans-61" transform="scale(0.015625)"/>
       <path d="M 2906 1791 
Q 2906 2416 2648 2759 
Q 2391 3103 1925 3103 
Q 1463 3103 1205 2759 
Q 947 2416 947 1791 
Q 947 1169 1205 825 
Q 1463 481 1925 481 
Q 2391 481 2648 825 
Q 2906 1169 2906 1791 
z
M 3481 434 
Q 3481 -459 3084 -895 
Q 2688 -1331 1869 -1331 
Q 1566 -1331 1297 -1286 
Q 1028 -1241 775 -1147 
L 775 -588 
Q 1028 -725 1275 -790 
Q 1522 -856 1778 -856 
Q 2344 -856 2625 -561 
Q 2906 -266 2906 331 
L 2906 616 
Q 2728 306 2450 153 
Q 2172 0 1784 0 
Q 1141 0 747 490 
Q 353 981 353 1791 
Q 353 2603 747 3093 
Q 1141 3584 1784 3584 
Q 2172 3584 2450 3431 
Q 2728 3278 2906 2969 
L 2906 3500 
L 3481 3500 
L 3481 434 
z
" id="DejaVuSans-67" transform="scale(0.015625)"/>
       <path d="M 2906 2969 
L 2906 4863 
L 3481 4863 
L 3481 0 
L 2906 0 
L 2906 525 
Q 2725 213 2448 61 
Q 2172 -91 1784 -91 
Q 1150 -91 751 415 
Q 353 922 353 1747 
Q 353 2572 751 3078 
Q 1150 3584 1784 3584 
Q 2172 3584 2448 3432 
Q 2725 3281 2906 2969 
z
M 947 1747 
Q 947 1113 1208 752 
Q 1469 391 1925 391 
Q 2381 391 2643 752 
Q 2906 1113 2906 1747 
Q 2906 2381 2643 2742 
Q 2381 3103 1925 3103 
Q 1469 3103 1208 2742 
Q 947 2381 947 1747 
z
" id="DejaVuSans-64" transform="scale(0.015625)"/>
       <path d="M 3425 4513 
L 3425 3897 
Q 3066 4069 2747 4153 
Q 2428 4238 2131 4238 
Q 1616 4238 1336 4038 
Q 1056 3838 1056 3469 
Q 1056 3159 1242 3001 
Q 1428 2844 1947 2747 
L 2328 2669 
Q 3034 2534 3370 2195 
Q 3706 1856 3706 1288 
Q 3706 609 3251 259 
Q 2797 -91 1919 -91 
Q 1588 -91 1214 -16 
Q 841 59 441 206 
L 441 856 
Q 825 641 1194 531 
Q 1563 422 1919 422 
Q 2459 422 2753 634 
Q 3047 847 3047 1241 
Q 3047 1584 2836 1778 
Q 2625 1972 2144 2069 
L 1759 2144 
Q 1053 2284 737 2584 
Q 422 2884 422 3419 
Q 422 4038 858 4394 
Q 1294 4750 2059 4750 
Q 2388 4750 2728 4690 
Q 3069 4631 3425 4513 
z
" id="DejaVuSans-53" transform="scale(0.015625)"/>
       <path d="M 2834 3397 
L 2834 2853 
Q 2591 2978 2328 3040 
Q 2066 3103 1784 3103 
Q 1356 3103 1142 2972 
Q 928 2841 928 2578 
Q 928 2378 1081 2264 
Q 1234 2150 1697 2047 
L 1894 2003 
Q 2506 1872 2764 1633 
Q 3022 1394 3022 966 
Q 3022 478 2636 193 
Q 2250 -91 1575 -91 
Q 1294 -91 989 -36 
Q 684 19 347 128 
L 347 722 
Q 666 556 975 473 
Q 1284 391 1588 391 
Q 1994 391 2212 530 
Q 2431 669 2431 922 
Q 2431 1156 2273 1281 
Q 2116 1406 1581 1522 
L 1381 1569 
Q 847 1681 609 1914 
Q 372 2147 372 2553 
Q 372 3047 722 3315 
Q 1072 3584 1716 3584 
Q 2034 3584 2315 3537 
Q 2597 3491 2834 3397 
z
" id="DejaVuSans-73" transform="scale(0.015625)"/>
       <path d="M 3513 2113 
L 3513 0 
L 2938 0 
L 2938 2094 
Q 2938 2591 2744 2837 
Q 2550 3084 2163 3084 
Q 1697 3084 1428 2787 
Q 1159 2491 1159 1978 
L 1159 0 
L 581 0 
L 581 4863 
L 1159 4863 
L 1159 2956 
Q 1366 3272 1645 3428 
Q 1925 3584 2291 3584 
Q 2894 3584 3203 3211 
Q 3513 2838 3513 2113 
z
" id="DejaVuSans-68" transform="scale(0.015625)"/>
       <path d="M 1159 525 
L 1159 -1331 
L 581 -1331 
L 581 3500 
L 1159 3500 
L 1159 2969 
Q 1341 3281 1617 3432 
Q 1894 3584 2278 3584 
Q 2916 3584 3314 3078 
Q 3713 2572 3713 1747 
Q 3713 922 3314 415 
Q 2916 -91 2278 -91 
Q 1894 -91 1617 61 
Q 1341 213 1159 525 
z
M 3116 1747 
Q 3116 2381 2855 2742 
Q 2594 3103 2138 3103 
Q 1681 3103 1420 2742 
Q 1159 2381 1159 1747 
Q 1159 1113 1420 752 
Q 1681 391 2138 391 
Q 2594 391 2855 752 
Q 3116 1113 3116 1747 
z
" id="DejaVuSans-70" transform="scale(0.015625)"/>
      </defs>
      <use xlink:href="#DejaVuSans-45"/>
      <use x="63.183594" xlink:href="#DejaVuSans-72"/>
      <use x="102.546875" xlink:href="#DejaVuSans-72"/>
      <use x="141.410156" xlink:href="#DejaVuSans-6f"/>
      <use x="202.591797" xlink:href="#DejaVuSans-72"/>
      <use x="243.705078" xlink:href="#DejaVuSans-20"/>
      <use x="275.492188" xlink:href="#DejaVuSans-62"/>
      <use x="338.96875" xlink:href="#DejaVuSans-65"/>
      <use x="400.492188" xlink:href="#DejaVuSans-74"/>
      <use x="439.701172" xlink:href="#DejaVuSans-77"/>
      <use x="521.488281" xlink:href="#DejaVuSans-65"/>
      <use x="583.011719" xlink:href="#DejaVuSans-65"/>
      <use x="644.535156" xlink:href="#DejaVuSans-6e"/>
      <use x="707.914062" xlink:href="#DejaVuSans-20"/>
      <use x="739.701172" xlink:href="#DejaVuSans-74"/>
      <use x="778.910156" xlink:href="#DejaVuSans-61"/>
      <use x="840.189453" xlink:href="#DejaVuSans-72"/>
      <use x="879.552734" xlink:href="#DejaVuSans-67"/>
      <use x="943.029297" xlink:href="#DejaVuSans-65"/>
      <use x="1004.552734" xlink:href="#DejaVuSans-74"/>
      <use x="1043.761719" xlink:href="#DejaVuSans-20"/>
      <use x="1075.548828" xlink:href="#DejaVuSans-61"/>
      <use x="1136.828125" xlink:href="#DejaVuSans-6e"/>
      <use x="1200.207031" xlink:href="#DejaVuSans-64"/>
      <use x="1263.683594" xlink:href="#DejaVuSans-20"/>
      <use x="1295.470703" xlink:href="#DejaVuSans-53"/>
      <use x="1358.947266" xlink:href="#DejaVuSans-45"/>
      <use x="1422.130859" xlink:href="#DejaVuSans-20"/>
      <use x="1453.917969" xlink:href="#DejaVuSans-73"/>
      <use x="1506.017578" xlink:href="#DejaVuSans-68"/>
      <use x="1569.396484" xlink:href="#DejaVuSans-61"/>
      <use x="1630.675781" xlink:href="#DejaVuSans-70"/>
      <use x="1694.152344" xlink:href="#DejaVuSans-65"/>
     </g>
    </g>
   </g>
   <g id="matplotlib.axis_2">
    <g id="ytick_1">
     <g id="line2d_7">
      <defs>
       <path d="M 0 0 
L -3.5 0 
" id="m84d5a4dd50" style="stroke:#000000;stroke-width:0.8;"/>
      </defs>
      <g>
       <use style="stroke:#000000;stroke-width:0.8;" x="57.6" xlink:href="#m84d5a4dd50" y="304.033382"/>
      </g>
     </g>
     <g id="text_8">
      <!-- 0.0 -->
      <g transform="translate(34.696875 307.832601)scale(0.1 -0.1)">
       <defs>
        <path d="M 684 794 
L 1344 794 
L 1344 0 
L 684 0 
L 684 794 
z
" id="DejaVuSans-2e" transform="scale(0.015625)"/>
       </defs>
       <use xlink:href="#DejaVuSans-30"/>
       <use x="63.623047" xlink:href="#DejaVuSans-2e"/>
       <use x="95.410156" xlink:href="#DejaVuSans-30"/>
      </g>
     </g>
    </g>
    <g id="ytick_2">
     <g id="line2d_8">
      <g>
       <use style="stroke:#000000;stroke-width:0.8;" x="57.6" xlink:href="#m84d5a4dd50" y="267.954562"/>
      </g>
     </g>
     <g id="text_9">
      <!-- 0.1 -->
      <g transform="translate(34.696875 271.753781)scale(0.1 -0.1)">
       <use xlink:href="#DejaVuSans-30"/>
       <use x="63.623047" xlink:href="#DejaVuSans-2e"/>
       <use x="95.410156" xlink:href="#DejaVuSans-31"/>
      </g>
     </g>
    </g>
    <g id="ytick_3">
     <g id="line2d_9">
      <g>
       <use style="stroke:#000000;stroke-width:0.8;" x="57.6" xlink:href="#m84d5a4dd50" y="231.875742"/>
      </g>
     </g>
     <g id="text_10">
      <!-- 0.2 -->
      <g transform="translate(34.696875 235.674961)scale(0.1 -0.1)">
       <use xlink:href="#DejaVuSans-30"/>
       <use x="63.623047" xlink:href="#DejaVuSans-2e"/>
       <use x="95.410156" xlink:href="#DejaVuSans-32"/>
      </g>
     </g>
    </g>
    <g id="ytick_4">
     <g id="line2d_10">
      <g>
       <use style="stroke:#000000;stroke-width:0.8;" x="57.6" xlink:href="#m84d5a4dd50" y="195.796922"/>
      </g>
     </g>
     <g id="text_11">
      <!-- 0.3 -->
      <g transform="translate(34.696875 199.596141)scale(0.1 -0.1)">
       <defs>
        <path d="M 2597 2516 
Q 3050 2419 3304 2112 
Q 3559 1806 3559 1356 
Q 3559 666 3084 287 
Q 2609 -91 1734 -91 
Q 1441 -91 1130 -33 
Q 819 25 488 141 
L 488 750 
Q 750 597 1062 519 
Q 1375 441 1716 441 
Q 2309 441 2620 675 
Q 2931 909 2931 1356 
Q 2931 1769 2642 2001 
Q 2353 2234 1838 2234 
L 1294 2234 
L 1294 2753 
L 1863 2753 
Q 2328 2753 2575 2939 
Q 2822 3125 2822 3475 
Q 2822 3834 2567 4026 
Q 2313 4219 1838 4219 
Q 1578 4219 1281 4162 
Q 984 4106 628 3988 
L 628 4550 
Q 988 4650 1302 4700 
Q 1616 4750 1894 4750 
Q 2613 4750 3031 4423 
Q 3450 4097 3450 3541 
Q 3450 3153 3228 2886 
Q 3006 2619 2597 2516 
z
" id="DejaVuSans-33" transform="scale(0.015625)"/>
       </defs>
       <use xlink:href="#DejaVuSans-30"/>
       <use x="63.623047" xlink:href="#DejaVuSans-2e"/>
       <use x="95.410156" xlink:href="#DejaVuSans-33"/>
      </g>
     </g>
    </g>
    <g id="ytick_5">
     <g id="line2d_11">
      <g>
       <use style="stroke:#000000;stroke-width:0.8;" x="57.6" xlink:href="#m84d5a4dd50" y="159.718102"/>
      </g>
     </g>
     <g id="text_12">
      <!-- 0.4 -->
      <g transform="translate(34.696875 163.517321)scale(0.1 -0.1)">
       <defs>
        <path d="M 2419 4116 
L 825 1625 
L 2419 1625 
L 2419 4116 
z
M 2253 4666 
L 3047 4666 
L 3047 1625 
L 3713 1625 
L 3713 1100 
L 3047 1100 
L 3047 0 
L 2419 0 
L 2419 1100 
L 313 1100 
L 313 1709 
L 2253 4666 
z
" id="DejaVuSans-34" transform="scale(0.015625)"/>
       </defs>
       <use xlink:href="#DejaVuSans-30"/>
       <use x="63.623047" xlink:href="#DejaVuSans-2e"/>
       <use x="95.410156" xlink:href="#DejaVuSans-34"/>
      </g>
     </g>
    </g>
    <g id="ytick_6">
     <g id="line2d_12">
      <g>
       <use style="stroke:#000000;stroke-width:0.8;" x="57.6" xlink:href="#m84d5a4dd50" y="123.639282"/>
      </g>
     </g>
     <g id="text_13">
      <!-- 0.5 -->
      <g transform="translate(34.696875 127.438501)scale(0.1 -0.1)">
       <use xlink:href="#DejaVuSans-30"/>
       <use x="63.623047" xlink:href="#DejaVuSans-2e"/>
       <use x="95.410156" xlink:href="#DejaVuSans-35"/>
      </g>
     </g>
    </g>
    <g id="ytick_7">
     <g id="line2d_13">
      <g>
       <use style="stroke:#000000;stroke-width:0.8;" x="57.6" xlink:href="#m84d5a4dd50" y="87.560462"/>
      </g>
     </g>
     <g id="text_14">
      <!-- 0.6 -->
      <g transform="translate(34.696875 91.359681)scale(0.1 -0.1)">
       <defs>
        <path d="M 2113 2584 
Q 1688 2584 1439 2293 
Q 1191 2003 1191 1497 
Q 1191 994 1439 701 
Q 1688 409 2113 409 
Q 2538 409 2786 701 
Q 3034 994 3034 1497 
Q 3034 2003 2786 2293 
Q 2538 2584 2113 2584 
z
M 3366 4563 
L 3366 3988 
Q 3128 4100 2886 4159 
Q 2644 4219 2406 4219 
Q 1781 4219 1451 3797 
Q 1122 3375 1075 2522 
Q 1259 2794 1537 2939 
Q 1816 3084 2150 3084 
Q 2853 3084 3261 2657 
Q 3669 2231 3669 1497 
Q 3669 778 3244 343 
Q 2819 -91 2113 -91 
Q 1303 -91 875 529 
Q 447 1150 447 2328 
Q 447 3434 972 4092 
Q 1497 4750 2381 4750 
Q 2619 4750 2861 4703 
Q 3103 4656 3366 4563 
z
" id="DejaVuSans-36" transform="scale(0.015625)"/>
       </defs>
       <use xlink:href="#DejaVuSans-30"/>
       <use x="63.623047" xlink:href="#DejaVuSans-2e"/>
       <use x="95.410156" xlink:href="#DejaVuSans-36"/>
      </g>
     </g>
    </g>
    <g id="ytick_8">
     <g id="line2d_14">
      <g>
       <use style="stroke:#000000;stroke-width:0.8;" x="57.6" xlink:href="#m84d5a4dd50" y="51.481642"/>
      </g>
     </g>
     <g id="text_15">
      <!-- 0.7 -->
      <g transform="translate(34.696875 55.280861)scale(0.1 -0.1)">
       <defs>
        <path d="M 525 4666 
L 3525 4666 
L 3525 4397 
L 1831 0 
L 1172 0 
L 2766 4134 
L 525 4134 
L 525 4666 
z
" id="DejaVuSans-37" transform="scale(0.015625)"/>
       </defs>
       <use xlink:href="#DejaVuSans-30"/>
       <use x="63.623047" xlink:href="#DejaVuSans-2e"/>
       <use x="95.410156" xlink:href="#DejaVuSans-37"/>
      </g>
     </g>
    </g>
    <g id="text_16">
     <!-- Index -->
     <g transform="translate(28.617188 188.294406)rotate(-90)scale(0.1 -0.1)">
      <defs>
       <path d="M 628 4666 
L 1259 4666 
L 1259 0 
L 628 0 
L 628 4666 
z
" id="DejaVuSans-49" transform="scale(0.015625)"/>
       <path d="M 3513 3500 
L 2247 1797 
L 3578 0 
L 2900 0 
L 1881 1375 
L 863 0 
L 184 0 
L 1544 1831 
L 300 3500 
L 978 3500 
L 1906 2253 
L 2834 3500 
L 3513 3500 
z
" id="DejaVuSans-78" transform="scale(0.015625)"/>
      </defs>
      <use xlink:href="#DejaVuSans-49"/>
      <use x="29.492188" xlink:href="#DejaVuSans-6e"/>
      <use x="92.871094" xlink:href="#DejaVuSans-64"/>
      <use x="156.347656" xlink:href="#DejaVuSans-65"/>
      <use x="216.121094" xlink:href="#DejaVuSans-78"/>
     </g>
    </g>
   </g>
   <g id="patch_3">
    <path d="M 57.6 307.584 
L 57.6 41.472 
" style="fill:none;stroke:#000000;stroke-linecap:square;stroke-linejoin:miter;stroke-width:0.8;"/>
   </g>
   <g id="patch_4">
    <path d="M 414.72 307.584 
L 414.72 41.472 
" style="fill:none;stroke:#000000;stroke-linecap:square;stroke-linejoin:miter;stroke-width:0.8;"/>
   </g>
   <g id="patch_5">
    <path d="M 57.6 307.584 
L 414.72 307.584 
" style="fill:none;stroke:#000000;stroke-linecap:square;stroke-linejoin:miter;stroke-width:0.8;"/>
   </g>
   <g id="patch_6">
    <path d="M 57.6 41.472 
L 414.72 41.472 
" style="fill:none;stroke:#000000;stroke-linecap:square;stroke-linejoin:miter;stroke-width:0.8;"/>
   </g>
  </g>
 </g>
 <defs>
  <clipPath id="pb148357b1e">
   <rect height="266.112" width="357.12" x="57.6" y="41.472"/>
  </clipPath>
 </defs>
</svg>
